<svg viewBox="0 -31 512 512" xmlns="http://www.w3.org/2000/svg"><path d="m512 60v138.601562l-66.699219 131.398438h-289.203125l-30-270zm0 0" fill="#ff6c6c"/><path d="m512 60v138.601562l-66.699219 131.398438h-129.300781v-270zm0 0" fill="#ff4949"/><path d="m406 360v30h-252.597656l-60-360h-93.402344v-30h118.597656l60 360zm0 0" fill="#725d57"/><path d="m316 360h90v30h-90zm0 0" fill="#68544f"/><path d="m346 127.5c-11.101562 0-21.898438 4.5-30 12.597656-8.101562-8.101562-18.898438-12.597656-30-12.597656-25.199219 0-45 21-45 47.398438 0 33.300781 33.601562 56.101562 75 91.203124 41.699219-35.402343 75-57.003906 75-91.203124 0-26.398438-19.800781-47.398438-45-47.398438zm0 0" fill="#ececf1"/><path d="m316 266.101562v-126c8.101562-8.101562 18.898438-12.601562 30-12.601562 25.199219 0 45 21 45 47.398438 0 34.199218-33.300781 55.800781-75 91.203124zm0 0" fill="#e2e2e7"/><path d="m226 360c-24.902344 0-45 20.097656-45 45s20.097656 45 45 45 45-20.097656 45-45-20.097656-45-45-45zm0 0" fill="#68544f"/><path d="m271 405c0 24.902344-20.097656 45-45 45v-90c24.902344 0 45 20.097656 45 45zm0 0" fill="#53433f"/><path d="m226 390c-8.402344 0-15 6.597656-15 15s6.597656 15 15 15 15-6.597656 15-15-6.597656-15-15-15zm0 0" fill="#ececf1"/><path d="m241 405c0 8.402344-6.597656 15-15 15v-30c8.402344 0 15 6.597656 15 15zm0 0" fill="#e2e2e7"/><path d="m406 360c-24.902344 0-45 20.097656-45 45s20.097656 45 45 45 45-20.097656 45-45-20.097656-45-45-45zm0 0" fill="#68544f"/><path d="m451 405c0 24.902344-20.097656 45-45 45v-90c24.902344 0 45 20.097656 45 45zm0 0" fill="#53433f"/><path d="m406 390c-8.402344 0-15 6.597656-15 15s6.597656 15 15 15 15-6.597656 15-15-6.597656-15-15-15zm0 0" fill="#ececf1"/><path d="m421 405c0 8.402344-6.597656 15-15 15v-30c8.402344 0 15 6.597656 15 15zm0 0" fill="#e2e2e7"/></svg>