<svg height="512pt" viewBox="-6 0 512 512.001" width="512pt" xmlns="http://www.w3.org/2000/svg"><g fill-rule="evenodd"><path d="m434.988281 282.570312c-.871093-16.84375-2.78125-32.667968-5.101562-44.933593-.066407-.355469-.132813-.710938-.203125-1.066407-22.546875-118.578124-57.375-179.957031-103.445313-207.558593-3.582031-2.144531-7.234375-4.0625-10.949219-5.8125-20.660156 2.03125-39.765624 7.628906-57.242187 18.101562-46.074219 27.601563-80.902344 88.980469-103.453125 207.5625-.066406.355469-.132812.707031-.199219 1.066407-1.128906 5.964843-2.15625 12.789062-3.023437 20.148437 11.222656-.109375 23.425781 1 36.652344 3.578125 0-12.054688 9.761718-21.828125 21.808593-21.828125l80.429688.066406c5.503906 0 11.015625 2.078125 15.25 6.246094 1.816406 1.789063 3.230469 3.824219 4.285156 5.992187l64.714844.050782c5.503906 0 11.011719 2.078125 15.25 6.246094 2.683593 2.644531 4.527343 5.8125 5.546875 9.179687 3.421875 1.519531 6.671875 3.195313 9.742187 5.023437 10.671875-1.617187 20.660157-2.277343 29.9375-2.0625zm0 0" fill="#ffceac"/><path d="m69.269531 94.945312c-35.953125 41.886719-22.902343 90.570313 4.933594 122.480469 22.582031-106.109375 56.066406-162.339843 99.59375-188.414062-7.054687-4.871094-13.277344-9.078125-16.613281-11.105469-31.164063 4.703125-54.617188 38.246094-87.914063 77.039062zm0 0" fill="#e0ac91"/><path d="m468.09375 87.613281c-44.664062-52.042969-71.609375-94.644531-123.234375-70.839843-2.097656.964843-9.703125 6.078124-18.621094 12.238281 1.597657.957031 3.183594 1.960937 4.753907 3 38.519531-4.550781 63.707031 32.910156 101.742187 77.226562 35.621094 41.5 23.140625 89.671875-4.160156 121.59375.371093 1.898438.742187 3.8125 1.109375 5.742188 46.015625-23.1875 87.046875-92.296875 38.410156-148.960938zm0 0" fill="#e0ac91"/></g><path d="m236.191406 279.054688c-4.542968-4-7.414062-9.863282-7.414062-16.398438 0-3.933594 1.046875-7.621094 2.867187-10.808594l-21.8125-.019531c-12.046875 0-21.808593 9.773437-21.808593 21.828125 0 6.535156 2.867187 12.398438 7.414062 16.398438l39.105469 39.949218c8.578125 8.730469 22.390625 8.625 31.007812 0l10.285157-10.507812c-.175782-.167969-.363282-.316406-.539063-.492188zm0 0" fill="#fff"/><path d="m312.007812 273.847656c.046876-5.695312-2.121093-11.398437-6.496093-15.707031-4.234375-4.167969-9.746094-6.246094-15.25-6.246094l-58.617188-.046875c-1.820312 3.1875-2.867187 6.875-2.867187 10.808594 0 6.535156 2.871094 12.398438 7.414062 16.398438l39.105469 39.949218c.175781.175782.363281.324219.539063.492188l29.929687-30.578125c4.117187-4.1875 6.195313-9.625 6.242187-15.070313zm0 0" fill="#9d7463"/><path d="m323.410156 271.945312-19.859375 20.292969c-1.320312 1.320313-2.773437 2.414063-4.300781 3.335938l-33.699219 34.429687c-8.617187 8.625-22.429687 8.730469-31.011719 0l-39.105468-39.949218c-4.542969-4-7.414063-9.863282-7.414063-16.398438-36.800781-7.175781-65.777343-3.128906-87.273437 7.644531-31.492188 63.246094 18.550781 161.027344 138.179687 124.207031 15.242188-4.691406 31.613281-11.566406 49.089844-20.976562l-.003906.1875c17.480469 9.410156 33.851562 16.289062 49.09375 20.980469 41.445312 12.753906 74.527343 9.339843 98.773437-3.183594 14.222656-27.148437 14.324219-60.671875-.660156-87.175781-17.117188-30.277344-53.917969-51.390625-111.808594-43.394532zm0 0" fill="#e0ac91" fill-rule="evenodd"/><path d="m237.8125 428.546875c-3.511719 1.703125-6.972656 3.304687-10.386719 4.800781v8.273438c0 27.019531 22.089844 49.128906 49.089844 49.128906 1.675781 0 3.332031-.085938 4.964844-.25 10.753906-9.03125 17.625-22.566406 17.625-37.628906v-9.40625c-14.847657-4.570313-30.769531-11.21875-47.738281-20.261719-4.605469 1.96875-9.125 3.742187-13.554688 5.34375zm0 0" fill="#ff8d8d" fill-rule="evenodd"/><path d="m279.890625 204.890625c4.824219 2.691406 10.914063.964844 13.605469-3.855469 4.230468-7.566406 12.054687-12.265625 20.421875-12.265625 8.367187 0 16.1875 4.699219 20.417969 12.265625 1.832031 3.277344 5.230468 5.125 8.738281 5.125 1.648437 0 3.324219-.410156 4.867187-1.269531 4.820313-2.695313 6.546875-8.789063 3.851563-13.609375-7.757813-13.886719-22.273438-22.511719-37.878907-22.511719-15.605468 0-30.121093 8.625-37.878906 22.511719-2.691406 4.820312-.964844 10.914062 3.855469 13.609375zm0 0"/><path d="m186.113281 168.769531c-15.605469 0-30.121093 8.625-37.878906 22.511719-2.691406 4.824219-.96875 10.914062 3.851563 13.609375 4.824218 2.691406 10.917968.964844 13.609374-3.855469 4.226563-7.566406 12.050782-12.265625 20.417969-12.265625 8.367188 0 16.191407 4.699219 20.417969 12.265625 1.832031 3.277344 5.234375 5.125 8.742188 5.125 1.648437 0 3.324218-.410156 4.867187-1.269531 4.820313-2.695313 6.546875-8.785156 3.851563-13.605469-7.757813-13.890625-22.273438-22.515625-37.878907-22.515625zm0 0"/><path d="m475.683594 81.097656c-4.828125-5.621094-9.460938-11.152344-13.945313-16.503906-18.890625-22.550781-35.210937-42.027344-53.480469-53.582031-21.21875-13.417969-43.328124-14.503907-67.585937-3.320313-1.488281.6875-4.054687 2.097656-15.035156 9.597656-21.933594-11.707031-46.996094-17.289062-75.621094-17.289062s-53.6875 5.582031-75.621094 17.289062c-10.976562-7.496093-13.542969-8.910156-15.035156-9.597656-24.257813-11.183594-46.367187-10.097656-67.589844 3.320313-18.269531 11.554687-34.585937 31.03125-53.480469 53.585937-4.480468 5.347656-9.117187 10.878906-13.941406 16.5-20.558594 23.957032-28.316406 52.15625-22.4375 81.5625 6.363282 31.8125 28.523438 62.160156 57.339844 79.222656-2.957031 18.109376-5.410156 44.40625-4.535156 70.914063-9.660156 18.398437-13.230469 40.238281-10.042969 61.542969 3.242187 21.675781 13.375 41.90625 28.539063 56.96875 18.515624 18.390625 43.628906 28.730468 72.628906 29.910156 1.894531.074219 3.800781.113281 5.722656.113281 12.613281 0 25.792969-1.660156 39.476562-4.957031 1.820313 30.980469 27.570313 55.625 58.976563 55.625 31.34375 0 57.054687-24.546875 58.964844-55.4375 13.6875 3.296875 26.871093 4.957031 39.488281 4.957031 1.917969 0 3.832031-.039062 5.722656-.113281 29-1.175781 54.113282-11.519531 72.628906-29.910156 15.164063-15.0625 25.296876-35.292969 28.539063-56.964844 3.1875-21.3125-.382813-43.15625-10.046875-61.554688.011719-.386718.023438-.765624.035156-1.125.6875-22.800781-1.011718-48.453124-4.5625-69.96875 28.8125-17.0625 50.972656-47.410156 57.335938-79.222656 5.878906-29.402344-1.878906-57.605468-22.4375-81.5625zm-123.960938-17.4375c30.027344 34.566406 52.300782 91.664063 68.082032 174.507813.011718.066406.027343.136719.039062.207031.070312.378906.144531.742188.214844 1.121094 2.195312 11.613281 4.347656 28.734375 5.128906 47.59375-8.375-7.527344-18.191406-13.628906-29.222656-18.074219-21.683594-8.734375-47.234375-10.949219-76.042969-6.660156-1.574219-4.148438-4.035156-8.03125-7.394531-11.34375-5.976563-5.878907-13.882813-9.117188-22.257813-9.117188l-80.4375-.066406c-13.496093 0-25.046875 8.457031-29.660156 20.351563-28.839844-4.304688-54.410156-2.09375-76.105469 6.648437-11.03125 4.441406-20.847656 10.542969-29.222656 18.070313.78125-18.671876 2.90625-35.652344 5.125-47.40625.070312-.359376.140625-.707032.207031-1.066407.019531-.089843.039063-.183593.054688-.273437 15.777343-82.835938 38.050781-139.925782 68.078125-174.492188 25.878906-29.785156 58.199218-43.660156 101.707031-43.660156s75.828125 13.875 101.707031 43.660156zm-141.898437 198.167969 80.4375.066406c3.101562 0 6.023437 1.199219 8.234375 3.371094 4.621094 4.550781 4.683594 12.019531.121094 16.660156l-40.171876 41.039063c-2.300781 2.289062-5.304687 3.546875-8.464843 3.546875-3.128907 0-6.078125-1.246094-8.292969-3.503907l-39.105469-39.949218c-.175781-.175782-.355469-.347656-.542969-.511719-2.554687-2.25-4.019531-5.488281-4.019531-8.890625.003907-6.519531 5.300781-11.828125 11.804688-11.828125zm-188.300781-103.09375c-4.632813-23.148437 1.59375-45.492187 18-64.609375 4.90625-5.710938 9.578124-11.289062 14.097656-16.683594 39.375-47.003906 59.964844-68.835937 97.277344-51.628906.347656.175781 1.519531.839844 5.167968 3.25-43.394531 32.960938-72.878906 95.035156-92.769531 191.625-20.867187-14.679688-37.027344-38.214844-41.773437-61.953125zm267.582031 294.136719c0 21.574218-17.535157 39.128906-39.089844 39.128906s-39.089844-17.554688-39.089844-39.128906v-2.320313c9.484375-3.253906 19.1875-7.25 29.089844-11.96875v17.316407c0 5.523437 4.476563 10 10 10s10-4.476563 10-10v-17.125c9.902344 4.71875 19.605469 8.710937 29.089844 11.96875zm123.617187-35.566406c-33.546875 33.324218-90.542968 32.242187-156.535156-2.875-.113281-.085938-.226562-.164063-.339844-.246094-.097656-.066406-.1875-.140625-.285156-.207032-.144531-.09375-.292969-.179687-.441406-.265624-.132813-.082032-.265625-.164063-.40625-.238282-.117188-.0625-.238282-.117187-.355469-.171875-.175781-.085937-.351563-.171875-.53125-.246093-.09375-.042969-.195313-.074219-.292969-.109376-.203125-.074218-.410156-.152343-.621094-.21875-.097656-.027343-.199218-.050781-.300781-.078124-.210937-.054688-.417969-.113282-.632812-.15625-.207031-.042969-.417969-.066407-.625-.097657-.109375-.011719-.214844-.035156-.328125-.046875-.664063-.066406-1.339844-.066406-2.011719 0-.082031.007813-.160156.023438-.238281.035156-.246094.027344-.488282.0625-.730469.109376-.160156.03125-.316406.078124-.472656.117187s-.3125.074219-.46875.121094c-.234375.070312-.464844.15625-.691407.246093-.078124.03125-.15625.054688-.230468.085938-.328125.136719-.644532.285156-.949219.453125-66.585937 35.84375-124.144531 37.160156-157.925781 3.601563-24.769532-24.605469-30.976563-64.671876-14.761719-95.273438 17.671875-33.347656 56.332031-47.578125 106.671875-39.578125 1.609375 5.730469 4.808594 10.960937 9.308594 15.023437l38.882812 39.722657c6.019532 6.125 14.035156 9.5 22.574219 9.5 8.519531 0 16.558594-3.351563 22.644531-9.4375.023438-.027344.046875-.050781.070313-.074219l40.203125-41.070312c3.832031-3.898438 6.449218-8.542969 7.859375-13.464844 50.363281-8.019532 89.042969 6.207031 106.722656 39.566406 16.214844 30.601562 10.007813 70.671875-14.761719 95.273438zm65.785156-258.566407c-4.746093 23.734375-20.910156 47.269531-41.773437 61.949219-19.894531-96.589844-49.375-158.664062-92.773437-191.625 3.636718-2.402344 4.789062-3.054688 5.085937-3.207031 37.394531-17.25 57.984375 4.582031 97.363281 51.582031 4.519532 5.394531 9.191406 10.972656 14.097656 16.6875 16.40625 19.117188 22.632813 41.460938 18 64.613281zm0 0"/><path d="m137.265625 318.898438c-5.507813 0-10 4.492187-10 10 0 5.507812 4.492187 10 10 10s10-4.492188 10-10c0-5.507813-4.492187-10-10-10zm0 0"/><path d="m116.265625 373.898438c-5.507813 0-10 4.492187-10 10 0 5.507812 4.492187 10 10 10s10-4.492188 10-10c0-5.507813-4.492187-10-10-10zm0 0"/><path d="m175.765625 359.898438c-5.507813 0-10 4.492187-10 10 0 5.507812 4.492187 10 10 10s10-4.492188 10-10c0-5.507813-4.492187-10-10-10zm0 0"/><path d="m362.765625 318.898438c-5.507813 0-10 4.492187-10 10 0 5.507812 4.492187 10 10 10s10-4.492188 10-10c0-5.507813-4.492187-10-10-10zm0 0"/><path d="m383.765625 373.898438c-5.507813 0-10 4.492187-10 10 0 5.507812 4.492187 10 10 10s10-4.492188 10-10c0-5.507813-4.492187-10-10-10zm0 0"/><path d="m324.265625 359.898438c-5.507813 0-10 4.492187-10 10 0 5.507812 4.492187 10 10 10s10-4.492188 10-10c0-5.507813-4.492187-10-10-10zm0 0"/><path d="m151.230469 123.058594c.003906-.011719.054687-.109375.070312-.140625 2.492188-4.917969.535157-10.925781-4.378906-13.429688-4.921875-2.507812-10.945313-.550781-13.453125 4.371094-.003906.011719-.085938.179687-.09375.1875-2.488281 4.933594-.507812 10.945313 4.421875 13.433594 1.445313.730469 2.980469 1.074219 4.496094 1.074219 3.65625 0 7.175781-2.011719 8.9375-5.496094zm0 0"/><path d="m150.96875 102.269531c1.730469 1.191407 3.707031 1.765625 5.664062 1.765625 3.175782 0 6.304688-1.511718 8.242188-4.332031 11.195312-16.257813 32.207031-35.371094 47.996094-39.21875 5.363281-1.308594 8.65625-6.71875 7.347656-12.082031-1.308594-5.367188-6.714844-8.660156-12.085938-7.347656-23.9375 5.832031-48.835937 31.488281-59.730468 47.308593-3.132813 4.546875-1.984375 10.773438 2.566406 13.90625zm0 0"/></svg>