<svg viewBox="-30 0 512 512.00015" xmlns="http://www.w3.org/2000/svg"><path d="m394.597656 432.753906c-.882812 0-1.78125-.15625-2.65625-.488281-3.871094-1.46875-5.824218-5.796875-4.355468-9.671875 3.195312-8.433594 3.433593-19.898438 3.585937-27.480469.023437-1.109375.046875-2.140625.070313-3.085937.121093-4.140625 3.542968-7.414063 7.71875-7.277344 4.140624.121094 7.398437 3.574219 7.277343 7.714844-.027343.90625-.046875 1.894531-.066406 2.953125-.179687 8.617187-.445313 21.636719-4.558594 32.492187-1.136719 3-3.988281 4.84375-7.015625 4.84375zm0 0" fill="#dfe3e5"/><path d="m430.007812 448.867188c-.929687 0-1.871093-.175782-2.785156-.539063-3.84375-1.539063-5.714844-5.902344-4.179687-9.75 2.078125-5.191406 3.09375-12.582031 2.363281-17.191406-.648438-4.089844 2.140625-7.933594 6.234375-8.582031 4.101563-.652344 7.933594 2.144531 8.582031 6.234374 1.332032 8.402344-.671875 18.667969-3.25 25.109376-1.171875 2.933593-3.988281 4.71875-6.964844 4.71875zm0 0" fill="#dfe3e5"/><path d="m384.800781 402.613281c-19.730469 0-41.230469-7.613281-66.664062-22.890625-9.445313-5.675781-12.503907-17.933594-6.828125-27.378906 5.675781-9.441406 17.929687-12.5 27.375-6.824219 42.480468 25.519531 58.085937 18.0625 74.070312 5.65625 8.707032-6.757812 21.234375-5.175781 27.992188 3.527344 6.757812 8.703125 5.175781 21.234375-3.527344 27.992187-17.089844 13.261719-33.980469 19.917969-52.417969 19.917969zm0 0" fill="#495059"/><path d="m415.019531 369.964844c-.03125 0-.0625 0-.097656 0-4.140625-.054688-7.457031-3.453125-7.402344-7.59375.070313-5.554688-2.816406-18.121094-6.175781-26.894532-1.480469-3.867187.453125-8.203124 4.320312-9.683593 3.871094-1.484375 8.203126.453125 9.6875 4.320312 3.605469 9.410157 7.273438 24.121094 7.164063 32.445313-.050781 4.109375-3.398437 7.40625-7.496094 7.40625zm0 0" fill="#dfe3e5"/><g fill="#ddaf89"><path d="m215.128906 512c-6.183594 0-12.378906-2.285156-17.207031-6.894531-27.460937-26.191407-33.320313-67.417969-14.582031-102.582031 6.476562-12.15625 21.582031-16.757813 33.734375-10.28125 12.15625 6.476562 16.761719 21.582031 10.28125 33.738281-6.238281 11.707031-8.671875 30.003906 4.992187 43.035156 9.964844 9.507813 10.335938 25.292969.832032 35.257813-4.902344 5.140624-11.46875 7.726562-18.050782 7.726562zm0 0"/><path d="m336.410156 486.902344c-3.875 0-7.800781-.902344-11.472656-2.8125-12.222656-6.347656-16.988281-21.402344-10.640625-33.625 8.042969-15.480469.855469-36.574219-15.695313-46.0625-11.945312-6.851563-16.078124-22.09375-9.226562-34.042969 6.851562-11.945313 22.089844-16.078125 34.039062-9.226563 39.714844 22.777344 55.484376 73.164063 35.144532 112.320313-4.4375 8.550781-13.136719 13.449219-22.148438 13.449219zm0 0"/><path d="m99.375 379.859375c-27.6875 0-53.644531-10.75-69.359375-27.089844-9.550781-9.925781-9.246094-25.710937.683594-35.257812 9.925781-9.550781 25.710937-9.246094 35.261719.683593 9.46875 9.84375 38.605468 19.257813 62.953124 2.976563 11.445313-7.65625 26.9375-4.582031 34.59375 6.867187 7.65625 11.449219 4.582032 26.9375-6.867187 34.59375-18.03125 12.058594-38.066406 17.226563-57.265625 17.226563zm0 0"/><path d="m332.269531 337.457031c-8.011719-1.621093-15.070312-7.148437-18.285156-15.320312-5.042969-12.820313 1.257813-27.296875 14.074219-32.339844 38.953125-15.324219 69.011718-33.121094 78.453125-46.445313 7.960937-11.234374 23.53125-13.894531 34.765625-5.929687 11.238281 7.964844 13.894531 23.527344 5.929687 34.765625-19.753906 27.878906-65.765625 50.203125-100.886719 64.023438-4.640624 1.824218-9.5 2.164062-14.050781 1.246093zm0 0"/></g><path d="m376.125 299.585938c-1.714844-9.714844-4.660156-18.976563-8.675781-27.675782-11.472657 6.066406-24.808594 12.148438-39.390625 17.886719-12.816406 5.042969-19.117188 19.519531-14.074219 32.335937 3.214844 8.175782 10.273437 13.699219 18.285156 15.320313 4.550781.921875 9.410157.582031 14.050781-1.242187 9.902344-3.894532 20.664063-8.464844 31.464844-13.648438.226563-7.582031-.300781-15.265625-1.660156-22.976562zm0 0" fill="#d1a582"/><path d="m323.417969 361.136719c-11.949219-6.855469-27.191407-2.71875-34.039063 9.226562-6.855468 11.949219-2.722656 27.1875 9.226563 34.039063 8.757812 5.023437 14.890625 13.292968 17.535156 22.265625 14.320313-8.699219 26.949219-19.839844 37.222656-33.050781.46875-.605469.925781-1.214844 1.382813-1.824219-7.46875-12.335938-18.054688-23.042969-31.328125-30.65625zm0 0" fill="#d1a582"/><path d="m222.386719 447.011719c-.320313-7.671875 1.847656-15.175781 4.96875-21.03125 6.480469-12.15625 1.875-27.261719-10.28125-33.738281-12.152344-6.476563-27.257813-1.871094-33.734375 10.28125-5.070313 9.515624-8.324219 19.472656-9.851563 29.457031 14.761719 7.777343 31.308594 12.984375 48.898438 15.03125zm0 0" fill="#d1a582"/><path d="m163.503906 328.039062c-7.65625-11.449218-23.144531-14.523437-34.59375-6.867187-6.878906 4.601563-14.136718 7.148437-21.230468 8.214844.132812 5.707031.6875 11.460937 1.703124 17.230469 1.949219 11.046874 5.464844 21.523437 10.316407 31.253906 12.640625-2.488282 25.214843-7.398438 36.9375-15.238282 11.453125-7.65625 14.523437-23.144531 6.867187-34.59375zm0 0" fill="#d1a582"/><path d="m363.300781 301.859375c-10.539062-59.796875-72.6875-98.824219-138.808593-87.167969-66.121094 11.65625-111.179688 69.582032-100.640626 129.378906 10.542969 59.796876 72.691407 98.820313 138.8125 87.164063 66.121094-11.65625 111.179688-69.578125 100.636719-129.375zm0 0" fill="#ddaf89"/><path d="m339.46875 234.371094c-25.046875 29.519531-60.152344 50.804687-101.257812 58.054687-41.105469 7.246094-81.371094-.75-115.007813-19.921875-4.8125 9.179688-8.464844 18.890625-10.757813 28.953125-3.121093 13.703125 4.441407 27.617188 17.613282 32.519531 36.265625 13.496094 76.488281 17.816407 117.351562 10.613282 40.859375-7.207032 77.179688-25.023438 106.640625-50.109375 10.703125-9.113281 13.050781-24.773438 5.429688-36.582031-5.59375-8.671876-12.347657-16.550782-20.011719-23.527344zm0 0" fill="#7f9ae6"/><path d="m182.101562 293.066406c-20.941406-3.230468-40.871093-10.289062-58.898437-20.5625-4.8125 9.179688-8.464844 18.890625-10.757813 28.953125-3.121093 13.703125 4.441407 27.617188 17.613282 32.519531 18.859375 7.019532 38.789062 11.527344 59.320312 13.253907-9.742187-13.175781-11.527344-35.21875-7.277344-54.164063zm0 0" fill="#738cd1"/><path d="m157.882812 114.667969c-5.148437.90625-10.621093.253906-15.679687-2.210938l-35.066406-17.101562c-15.355469-7.484375-33.570313-3.425781-44.292969 9.871093l-17.21875 21.359376c-8.890625 11.03125-25.042969 12.761718-36.070312 3.871093-11.03125-8.894531-12.761719-25.042969-3.871094-36.074219l17.21875-21.359374c12.417968-15.398438 29.890625-26.253907 49.203125-30.554688 19.3125-4.304688 39.738281-1.898438 57.519531 6.769531l35.066406 17.101563c12.734375 6.207031 18.023438 21.566406 11.816406 34.300781-3.746093 7.675781-10.8125 12.648437-18.625 14.027344zm0 0" fill="#495059"/><path d="m252.902344 97.914062c-7.816406 1.378907-16.15625-.878906-22.300782-6.8125-10.1875-9.839843-10.46875-26.082031-.628906-36.273437l27.105469-28.058594c13.742187-14.230469 32.121094-23.472656 51.734375-26.039062 19.617188-2.558594 39.75 1.660156 56.6875 11.886719l23.484375 14.183593c12.128906 7.324219 16.023437 23.089844 8.699219 35.21875-7.324219 12.128907-23.089844 16.023438-35.21875 8.699219l-23.488282-14.179688c-14.625-8.828124-33.128906-6.414062-44.996093 5.875l-27.101563 28.058594c-3.910156 4.046875-8.832031 6.53125-13.976562 7.441406zm0 0" fill="#495059"/><path d="m240.671875 306.382812c128.253906-22.613281 175.691406-91.554687 143.066406-171.101562-35.0625-85.480469-104.699219-123.375-192.265625-107.933594-87.570312 15.4375-140.046875 74.867188-143.753906 167.183594-3.453125 85.90625 64.703125 134.464844 192.953125 111.851562zm0 0" fill="#ddaf89"/><path d="m282.113281 348.804688c0 18.753906-15.207031 33.957031-33.960937 33.957031s-33.957032-15.203125-33.957032-33.957031c0-18.753907 15.203126-33.960938 33.957032-33.960938s33.960937 15.207031 33.960937 33.960938zm0 0" fill="#f6e06a"/><path d="m152.152344 162.246094c-2.625-14.902344-19.925782-24.308594-38.636719-21.007813-18.714844 3.296875-31.753906 18.050781-29.128906 32.953125 2.628906 14.902344 19.925781 24.308594 38.640625 21.011719 18.714844-3.300781 31.753906-18.054687 29.125-32.957031zm0 0" fill="#ffdbdb"/><path d="m274.554688 140.644531c2.628906 14.902344 19.925781 24.308594 38.640624 21.007813 18.710938-3.296875 31.753907-18.050782 29.125-32.953125-2.625-14.902344-19.925781-24.308594-38.640624-21.011719-18.710938 3.300781-31.75 18.054688-29.125 32.957031zm0 0" fill="#ffdbdb"/><path d="m240.496094 132.28125c-3.53125-3.628906-8.257813-5.855469-13.304688-6.265625-12.1875-.996094-24.425781 1.160156-35.539062 6.265625-4.601563 2.113281-8.28125 5.820312-10.359375 10.441406-2.804688 6.238282.71875 13.492188 7.355469 15.144532l18.410156 4.582031c.210937.050781.425781.078125.640625.121093l5.832031 33.089844c.644531 3.636719 3.808594 6.199219 7.378906 6.199219.433594 0 .871094-.039063 1.3125-.117187 4.078125-.71875 6.800782-4.609376 6.082032-8.6875l-5.832032-33.085938c.183594-.117188.378906-.214844.558594-.335938l15.734375-10.601562c5.671875-3.824219 6.5-11.847656 1.730469-16.75zm0 0" fill="#495059"/><path d="m233.019531 263.648438c57.230469-10.089844 88.84375-55.503907 68.511719-81.066407-19.929688-25.054687-49.8125-4.53125-82.585938 1.25-32.769531 5.777344-67.875-3.289062-78.03125 27.070313-10.363281 30.976562 34.878907 62.835937 92.105469 52.746094zm0 0" fill="#fff"/><path d="m171.578125 188.128906 3.507813 71.089844c4.730468 1.785156 9.824218 3.238281 15.230468 4.300781l-3.789062-76.855469c-5.210938.316407-10.234375.722657-14.949219 1.464844zm93.574219-16.503906c-4.683594.902344-9.542969 2.234375-14.550782 3.714844l22.707032 73.457031c4.710937-2.859375 9-5.984375 12.828125-9.289063zm-46.207032 12.207031c-2.425781.425781-4.867187.769531-7.308593 1.058594l14.074219 79.824219c2.414062-.28125 4.847656-.632813 7.308593-1.066406 2.539063-.449219 5.023438-.96875 7.460938-1.550782l-14.078125-79.824218c-2.464844.585937-4.953125 1.117187-7.457032 1.558593zm0 0" fill="#dfe3e5"/><path d="m115.027344 151.371094c-3.574219 0-6.738282-2.5625-7.378906-6.199219-2.539063-14.402344 7.109374-28.183594 21.511718-30.722656 14.402344-2.535157 28.183594 7.109375 30.722656 21.511719.71875 4.078124-2.003906 7.96875-6.085937 8.6875-4.078125.722656-7.96875-2.003907-8.6875-6.085938-1.101563-6.253906-7.085937-10.449219-13.34375-9.34375-6.253906 1.105469-10.449219 7.089844-9.34375 13.347656.71875 4.078125-2.003906 7.96875-6.085937 8.6875-.4375.078125-.878907.117188-1.308594.117188zm0 0" fill="#495059"/><path d="m265.679688 124.804688c-3.570313 0-6.734376-2.558594-7.375-6.199219-2.539063-14.398438 7.109374-28.183594 21.511718-30.722657 14.410156-2.535156 28.183594 7.113282 30.71875 21.511719.722656 4.082031-2.003906 7.96875-6.082031 8.691407-4.074219.714843-7.96875-2.003907-8.6875-6.085938-1.105469-6.253906-7.09375-10.449219-13.347656-9.34375-3.027344.535156-5.667969 2.21875-7.433594 4.738281s-2.441406 5.578125-1.910156 8.605469c.722656 4.082031-2.003907 7.96875-6.082031 8.691406-.441407.074219-.878907.113282-1.3125.113282zm0 0" fill="#495059"/></svg>