<?xml version="1.0" encoding="iso-8859-1"?>
<!-- Generator: Adobe Illustrator 19.0.0, SVG Export Plug-In . SVG Version: 6.00 Build 0)  -->
<svg version="1.1" id="Layer_1" xmlns="http://www.w3.org/2000/svg" xmlns:xlink="http://www.w3.org/1999/xlink" x="0px" y="0px"
	 viewBox="0 0 511.978 511.978" style="enable-background:new 0 0 511.978 511.978;" xml:space="preserve">
<path style="fill:#E5E8EC;" d="M106.678,287.987v191.992c0,17.655,66.856,31.999,149.322,31.999
	c82.457,0,149.299-14.344,149.299-31.999V287.987H106.678z"/>
<path style="fill:#A9B1BC;" d="M256.001,255.989c-64.7,0-117.323-52.631-117.323-117.331c0-64.692,52.623-117.323,117.323-117.323
	c64.678,0,117.3,52.631,117.3,117.323C373.301,203.358,320.678,255.989,256.001,255.989z"/>
<g>
	<path style="fill:#CBD0D8;" d="M256.001,95.995c-23.562,0-42.67,19.102-42.67,42.663s19.108,42.67,42.67,42.67
		c23.554,0,42.647-19.108,42.647-42.67S279.554,95.995,256.001,95.995z M256.001,159.993c-11.766,0-21.327-9.57-21.327-21.335
		c0-11.758,9.562-21.327,21.327-21.327c11.749,0,21.304,9.569,21.304,21.327C277.304,150.423,267.75,159.993,256.001,159.993z"/>
	<path style="fill:#CBD0D8;" d="M256.001,53.333c-47.123,0-85.325,38.201-85.325,85.325c0,47.123,38.202,85.332,85.325,85.332
		c47.116,0,85.301-38.209,85.301-85.332C341.301,91.534,303.117,53.333,256.001,53.333z M256.001,202.655
		c-35.295,0-63.997-28.718-63.997-63.997c0-35.288,28.702-63.997,63.997-63.997c35.272,0,63.99,28.709,63.99,63.997
		C319.991,173.937,291.273,202.655,256.001,202.655z"/>
	<path style="fill:#CBD0D8;" d="M383.987,149.313c5.875,0,10.656-4.765,10.656-10.655s-4.781-10.664-10.656-10.664
		c-0.156,0-0.312,0.008-0.438,0.023c-0.344-4.094-0.875-8.125-1.593-12.093c0.156-0.031,0.28-0.055,0.405-0.094
		c5.719-1.523,9.094-7.367,7.562-13.062c-1.531-5.688-7.375-9.062-13.062-7.547c-0.125,0.047-0.281,0.086-0.406,0.125
		c-1.375-3.844-2.938-7.601-4.656-11.257c0.125-0.062,0.25-0.117,0.375-0.188c5.094-2.961,6.844-9.468,3.906-14.569
		c-2.969-5.109-9.468-6.859-14.593-3.906c-0.125,0.07-0.25,0.156-0.375,0.234c-2.312-3.344-4.781-6.562-7.406-9.664
		c0.094-0.102,0.219-0.195,0.312-0.312c4.188-4.155,4.188-10.905,0-15.069c-4.156-4.18-10.906-4.18-15.062-0.016
		c-0.125,0.117-0.219,0.234-0.312,0.336c-3.094-2.625-6.312-5.094-9.655-7.43c0.062-0.125,0.156-0.234,0.219-0.359
		c2.968-5.109,1.219-11.624-3.906-14.577c-5.093-2.945-11.624-1.195-14.562,3.906c-0.062,0.125-0.125,0.25-0.188,0.375
		c-3.655-1.727-7.437-3.289-11.28-4.664c0.062-0.133,0.094-0.273,0.125-0.398c1.531-5.695-1.844-11.539-7.531-13.062
		c-5.688-1.539-11.531,1.844-13.062,7.531c-0.031,0.148-0.062,0.281-0.094,0.422c-3.969-0.711-7.992-1.242-12.085-1.578
		c0.031-0.141,0.031-0.289,0.031-0.438C266.656,4.772,261.875,0,256,0c-5.906,0-10.672,4.772-10.672,10.663
		c0,0.148,0.016,0.297,0.031,0.438c-4.094,0.336-8.124,0.867-12.093,1.578c-0.031-0.141-0.047-0.273-0.094-0.422
		c-1.516-5.688-7.375-9.062-13.062-7.531c-5.688,1.523-9.062,7.375-7.547,13.062c0.047,0.125,0.094,0.266,0.125,0.398
		c-3.844,1.375-7.594,2.938-11.25,4.664c-0.078-0.125-0.125-0.25-0.203-0.375c-2.938-5.102-9.468-6.852-14.562-3.906
		c-5.109,2.953-6.859,9.468-3.906,14.577c0.078,0.125,0.156,0.25,0.234,0.375c-3.344,2.32-6.562,4.789-9.672,7.414
		c-0.094-0.102-0.188-0.211-0.297-0.32c-4.156-4.18-10.921-4.18-15.077,0c-4.172,4.164-4.172,10.914,0,15.069
		c0.109,0.117,0.219,0.211,0.328,0.312c-2.625,3.102-5.109,6.32-7.421,9.664c-0.125-0.07-0.25-0.164-0.375-0.234
		c-5.109-2.953-11.625-1.203-14.578,3.906c-2.938,5.102-1.188,11.624,3.906,14.569c0.125,0.07,0.25,0.125,0.375,0.188
		c-1.719,3.656-3.281,7.413-4.672,11.257c-0.125-0.039-0.266-0.078-0.391-0.125c-5.688-1.516-11.547,1.859-13.062,7.547
		c-1.531,5.695,1.843,11.539,7.53,13.062c0.141,0.039,0.281,0.062,0.422,0.094c-0.719,3.968-1.234,8.007-1.578,12.093
		c-0.141-0.016-0.281-0.023-0.438-0.023c-5.89,0-10.671,4.773-10.671,10.664s4.781,10.655,10.671,10.671
		c0.156,0,0.297-0.023,0.438-0.023c0.344,4.086,0.859,8.117,1.578,12.094c-0.141,0.031-0.281,0.039-0.422,0.086
		c-5.688,1.516-9.062,7.374-7.53,13.062c1.515,5.688,7.374,9.062,13.062,7.547c0.125-0.039,0.266-0.102,0.391-0.133
		c1.391,3.844,2.953,7.594,4.672,11.258c-0.125,0.078-0.25,0.125-0.375,0.203c-5.094,2.945-6.844,9.468-3.906,14.569
		c2.953,5.102,9.469,6.852,14.578,3.906c0.125-0.086,0.234-0.164,0.359-0.242c2.327,3.336,4.812,6.562,7.437,9.655
		c-0.109,0.109-0.219,0.203-0.328,0.305c-4.172,4.164-4.172,10.93,0,15.093c4.156,4.156,10.905,4.156,15.077,0
		c0.109-0.117,0.203-0.227,0.297-0.344c3.109,2.625,6.328,5.117,9.672,7.438c-0.078,0.125-0.156,0.242-0.234,0.367
		c-2.953,5.109-1.203,11.625,3.906,14.57c5.094,2.945,11.608,1.195,14.562-3.898c0.078-0.125,0.125-0.25,0.188-0.375
		c3.672,1.719,7.422,3.281,11.266,4.672c-0.031,0.133-0.078,0.258-0.125,0.391c-1.516,5.687,1.859,11.53,7.547,13.054
		c5.687,1.531,11.53-1.844,13.062-7.531c0.031-0.133,0.062-0.273,0.094-0.414c3.969,0.719,7.999,1.227,12.093,1.578
		c-0.016,0.141-0.031,0.281-0.031,0.438c0,5.898,4.766,10.68,10.672,10.68c5.875,0,10.656-4.781,10.656-10.68
		c0-0.156,0-0.297-0.031-0.438c4.093-0.352,8.116-0.859,12.085-1.578c0.031,0.141,0.062,0.281,0.094,0.414
		c1.531,5.688,7.375,9.062,13.062,7.531c5.688-1.508,9.062-7.367,7.562-13.054c-0.062-0.133-0.094-0.258-0.125-0.391
		c3.844-1.391,7.594-2.953,11.249-4.672c0.062,0.125,0.125,0.25,0.188,0.375c2.938,5.094,9.469,6.836,14.562,3.898
		c5.125-2.938,6.874-9.461,3.906-14.57c-0.062-0.125-0.156-0.242-0.219-0.367c3.343-2.32,6.562-4.812,9.655-7.438
		c0.094,0.117,0.188,0.227,0.312,0.344c4.156,4.156,10.906,4.156,15.062,0c4.188-4.163,4.188-10.929,0-15.093
		c-0.094-0.102-0.219-0.195-0.312-0.305c2.625-3.093,5.094-6.319,7.438-9.655c0.094,0.078,0.219,0.156,0.344,0.234
		c5.125,2.953,11.624,1.203,14.593-3.898c2.938-5.102,1.188-11.624-3.906-14.569c-0.125-0.078-0.25-0.125-0.375-0.203
		c1.719-3.664,3.281-7.414,4.656-11.258c0.125,0.031,0.281,0.094,0.406,0.125c5.687,1.523,11.53-1.852,13.062-7.539
		s-1.844-11.546-7.531-13.062c-0.156-0.047-0.28-0.055-0.437-0.086c0.718-3.977,1.249-8.008,1.593-12.094
		C383.675,149.305,383.831,149.313,383.987,149.313z M256.001,245.325c-28.499,0-55.279-11.094-75.419-31.24
		c-20.155-20.155-31.248-46.936-31.248-75.427c0-28.499,11.093-55.279,31.248-75.419c20.14-20.147,46.92-31.241,75.419-31.241
		c28.491,0,55.271,11.094,75.395,31.241c20.156,20.14,31.25,46.92,31.25,75.419c0,28.491-11.094,55.271-31.25,75.427
		C311.272,234.231,284.492,245.325,256.001,245.325z"/>
	<path style="fill:#CBD0D8;" d="M405.3,287.987c0,17.656-66.842,31.999-149.299,31.999c-82.466,0-149.322-14.343-149.322-31.999
		c0-17.679,66.856-31.998,149.322-31.998C338.458,255.989,405.3,270.308,405.3,287.987z"/>
</g>
<path style="fill:#EC5564;" d="M256.001,341.328c-82.466,0-149.322-14.343-149.322-31.997v149.307
	c0,17.686,66.856,31.997,149.322,31.997c82.457,0,149.299-14.312,149.299-31.997V309.331
	C405.3,326.985,338.458,341.328,256.001,341.328z"/>
<path style="fill:#E8563F;" d="M118.444,300.456c22.687,11.469,75.731,19.53,137.557,19.53c61.803,0,114.862-8.062,137.549-19.53
	v-12.469H118.444V300.456z"/>
<path style="fill:#FB6D51;" d="M256.001,309.331c35.835,0,70.271-2.812,96.957-7.875c12.625-2.375,22.937-5.156,30.686-8.25
	c5.5-2.188,8.406-4.031,9.906-5.219c-1.5-1.188-4.406-3.031-9.906-5.218c-7.749-3.094-18.061-5.875-30.686-8.281
	c-26.687-5.055-61.122-7.836-96.957-7.836c-35.857,0-70.294,2.781-96.965,7.836c-12.624,2.406-22.952,5.188-30.702,8.281
	c-5.5,2.187-8.405,4.03-9.89,5.218c1.484,1.188,4.39,3.031,9.89,5.219c7.75,3.094,18.078,5.875,30.702,8.25
	C185.707,306.518,220.143,309.331,256.001,309.331z"/>
<g>
	<path style="fill:#E5E8EC;" d="M255.985,458.637c-17.641,0-31.999-14.344-31.999-31.999c0-17.625,14.358-31.999,31.999-31.999
		c17.632,0,32.007,14.374,32.007,31.999C287.992,444.294,273.617,458.637,255.985,458.637z"/>
	<path style="fill:#E5E8EC;" d="M266.657,373.328c0,5.874-4.781,10.655-10.672,10.655c-5.891,0-10.656-4.781-10.656-10.655
		c0-5.906,4.766-10.688,10.656-10.688C261.875,362.64,266.657,367.422,266.657,373.328z"/>
	<path style="fill:#E5E8EC;" d="M233.361,378.264c4.156,4.172,4.156,10.938,0,15.094c-4.172,4.156-10.921,4.156-15.093,0
		c-4.156-4.156-4.156-10.922,0-15.094C222.44,374.108,229.189,374.108,233.361,378.264z"/>
	<path style="fill:#E5E8EC;" d="M278.617,378.264c4.156-4.156,10.938-4.156,15.094,0c4.156,4.172,4.156,10.938,0,15.094
		s-10.938,4.156-15.094,0S274.461,382.436,278.617,378.264z"/>
</g>
<g>
</g>
<g>
</g>
<g>
</g>
<g>
</g>
<g>
</g>
<g>
</g>
<g>
</g>
<g>
</g>
<g>
</g>
<g>
</g>
<g>
</g>
<g>
</g>
<g>
</g>
<g>
</g>
<g>
</g>
</svg>
