<svg viewBox="0 0 512 512.00078" xmlns="http://www.w3.org/2000/svg"><g fill="#00884a"><path d="m464.851562 30.019531h-112.464843c-8.28125 0-15-6.71875-15-15 0-8.285156 6.71875-14.9999998 15-14.9999998h112.464843c8.28125 0 14.996094 6.7148438 14.996094 14.9999998 0 8.28125-6.714844 15-14.996094 15zm0 0"/><path d="m432.71875 94.28125h-80.332031c-8.28125 0-15-6.714844-15-15 0-8.28125 6.71875-14.996094 15-14.996094h80.332031c8.285156 0 15 6.714844 15 14.996094 0 8.285156-6.714844 15-15 15zm0 0"/><path d="m432.71875 158.546875h-80.332031c-8.28125 0-15-6.714844-15-15s6.71875-15 15-15h80.332031c8.285156 0 15 6.714844 15 15s-6.714844 15-15 15zm0 0"/><path d="m432.71875 222.808594h-80.332031c-8.28125 0-15-6.710938-15-14.996094s6.71875-15 15-15h80.332031c8.285156 0 15 6.714844 15 15s-6.714844 14.996094-15 14.996094zm0 0"/><path d="m432.71875 287.074219h-80.332031c-8.28125 0-15-6.714844-15-15 0-8.285157 6.71875-14.996094 15-14.996094h80.332031c8.285156 0 15 6.710937 15 14.996094 0 8.285156-6.714844 15-15 15zm0 0"/></g><path d="m464.851562.0195312c-25.988281 0-47.132812 21.1445308-47.132812 47.1328128v417.714844c0 25.988281 21.140625 47.132812 47.132812 47.132812 25.988282 0 47.128907-21.144531 47.128907-47.132812v-417.714844c0-25.988282-21.140625-47.1328128-47.128907-47.1328128zm0 0" fill="#7fe881"/><path d="m79.964844 5.136719c11.164062-5.6875 23.871094-6.6875 35.785156-2.816407 11.914062 3.875 21.605469 12.152344 27.292969 23.3125l60.769531 119.269532c3.761719 7.378906.824219 16.414062-6.554688 20.171875-4.445312 2.265625-9.480468 2.085937-13.613281-.011719l-20.582031 40.394531 4.949219 9.707031c3.761719 7.382813.828125 16.414063-6.554688 20.175782-2.179687 1.109375-4.507812 1.636718-6.796875 1.636718-5.460937 0-10.726562-2.992187-13.378906-8.191406l-81.8125-160.566406c-11.738281-23.042969-2.546875-51.34375 20.496094-63.082031zm0 0" fill="#b4dafe"/><path d="m177.082031 285.429688 35.800781-70.265626c2.5625-5.023437 7.726563-8.1875 13.367188-8.1875s10.804688 3.164063 13.363281 8.1875l50.742188 99.59375c1.90625 3.738282 2.15625 8.105469.691406 12.039063-1.464844 3.9375-4.507813 7.078125-8.398437 8.660156l-59.289063 24.160157c-1.847656.75-3.765625 1.109374-5.652344 1.109374-5.488281 0-10.738281-3.023437-13.371093-8.191406l-27.253907-53.488281c-2.179687-4.277344-2.179687-9.339844 0-13.617187zm0 0" fill="#b4dafe"/><path d="m90.539062 314.757812 147.316407-289.121093c5.683593-11.164063 15.375-19.441407 27.292969-23.316407 11.914062-3.875 24.621093-2.871093 35.785156 2.816407 11.160156 5.6875 19.441406 15.382812 23.3125 27.292969 3.867187 11.917968 2.871094 24.625-2.820313 35.789062l-144.867187 284.316406c-2.648438 5.199219-7.914063 8.191406-13.375 8.191406-2.292969 0-4.617188-.523437-6.796875-1.640624-7-3.5625-9.992188-11.875-7.070313-19.019532l-31.472656-12.820312-.574219 1.128906c-3.761719 7.378906-12.792969 10.316406-20.171875 6.554688-7.382812-3.761719-10.320312-12.792969-6.558594-20.171876zm0 0" fill="#d7e9fd"/><path d="m175.449219 409.273438c0 56.644531 46.082031 102.726562 102.726562 102.726562 56.640625 0 102.722657-46.082031 102.722657-102.726562 0-56.640626-46.082032-102.722657-102.722657-102.722657-56.644531 0-102.726562 46.082031-102.726562 102.722657zm119.625 0c0 9.320312-7.582031 16.902343-16.898438 16.902343-9.320312 0-16.902343-7.582031-16.902343-16.902343 0-9.316407 7.582031-16.898438 16.902343-16.898438 9.316407 0 16.898438 7.582031 16.898438 16.898438zm0 0" fill="#ff3980"/><path d="m0 409.273438c0 56.644531 46.082031 102.726562 102.722656 102.726562 56.644532 0 102.726563-46.082031 102.726563-102.726562 0-56.640626-46.082031-102.722657-102.726563-102.722657-56.640625 0-102.722656 46.082031-102.722656 102.722657zm119.625 0c0 9.320312-7.582031 16.902343-16.902344 16.902343-9.320312 0-16.898437-7.582031-16.898437-16.902343 0-9.316407 7.578125-16.898438 16.898437-16.898438 9.320313 0 16.902344 7.582031 16.902344 16.898438zm0 0" fill="#ff5b5b"/><path d="m464.851562.0195312v511.9804688c25.988282 0 47.128907-21.144531 47.128907-47.132812v-417.714844c0-25.988282-21.140625-47.1328128-47.128907-47.1328128zm0 0" fill="#1fbf66"/></svg>