<svg height="512pt" viewBox="0 -12 512 512" width="512pt" xmlns="http://www.w3.org/2000/svg"><g fill-rule="evenodd"><path d="m46.523438 12.589844c-8.40625 4.128906-14.191407 12.769531-14.191407 22.765625 0 9.992187 5.785157 18.632812 14.191407 22.765625 8.402343-4.128906 14.1875-12.769532 14.1875-22.765625 0-9.996094-5.785157-18.636719-14.1875-22.765625zm0 0" fill="#66e2e7"/><path d="m266.785156 12.589844c-8.40625 4.128906-14.191406 12.769531-14.191406 22.765625 0 9.992187 5.785156 18.632812 14.191406 22.765625 8.402344-4.128906 14.1875-12.769532 14.1875-22.765625 0-9.996094-5.785156-18.636719-14.1875-22.765625zm0 0" fill="#66e2e7"/><path d="m194.054688 223.691406 10.347656-19.03125c-2.039063.566406-4.097656 1.066406-6.164063 1.511719-19.761719 10.792969-42.335937 14.871094-64.300781 12.214844l31.503906 57.941406zm0 0" fill="#00a2bb"/><path d="m240.054688 287.679688c-7.542969 3.710937-12.789063 11.941406-12.789063 21.5 0 9.5625 5.246094 17.792968 12.789063 21.503906 7.539062-3.710938 12.789062-11.941406 12.789062-21.503906 0-9.558594-5.25-17.789063-12.789062-21.5zm0 0" fill="#ffceac"/><path d="m304.710938 258.164062c-7.539063 3.710938-12.785157 11.941407-12.785157 21.503907 0 9.558593 5.246094 17.789062 12.785157 21.5 7.542968-3.710938 12.789062-11.941407 12.789062-21.5 0-9.5625-5.246094-17.789063-12.789062-21.503907zm0 0" fill="#ffceac"/><path d="m367.960938 287.679688c-7.542969 3.710937-12.789063 11.941406-12.789063 21.5 0 9.5625 5.246094 17.792968 12.789063 21.503906 7.539062-3.710938 12.789062-11.941406 12.789062-21.503906 0-9.558594-5.25-17.789063-12.789062-21.5zm0 0" fill="#ffceac"/><path d="m311.253906 343.910156c-15.875 6.453125-27.078125 22.070313-27.078125 40.324219s11.203125 33.871094 27.078125 40.328125c15.875-6.457031 27.078125-22.074219 27.078125-40.328125s-11.203125-33.871094-27.078125-40.324219zm0 0" fill="#ffceac"/></g><path d="m460.078125 128.613281c-24.3125 7.804688-41.921875 30.667969-41.921875 57.671875 0 27 17.609375 49.863282 41.921875 57.667969 24.3125-7.804687 41.921875-30.667969 41.921875-57.667969 0-27.003906-17.609375-49.867187-41.921875-57.671875zm0 0" fill="#66e2e7"/><path d="m463.949219 186.28125c0-12.332031-9.960938-22.332031-22.246094-22.332031s-22.246094 10-22.246094 22.332031c0 12.335938 9.960938 22.335938 22.246094 22.335938s22.246094-10 22.246094-22.335938zm0 0" fill="#00a2bb" fill-rule="evenodd"/><path d="m441.703125 321.355469c-5.523437 0-10 4.480469-10 10 0 75.375-61.320313 136.695312-136.695313 136.695312s-136.695312-61.320312-136.695312-136.695312v-20.984375l55.519531-102.121094c39.875-27.859375 58.832031-78.039062 52.808594-139.308594 14.113281-4.644531 24.332031-17.941406 24.332031-33.585937 0-19.496094-15.859375-35.355469-35.355468-35.355469-19.492188 0-35.355469 15.859375-35.355469 35.355469 0 16.378906 11.199219 30.1875 26.34375 34.1875 5.835937 55.882812-11.078125 100.890625-46.992188 124.195312-31.410156 20.378907-72.445312 20.636719-104.539062.648438-37.148438-23.132813-55.347657-68.390625-50.546875-124.890625 15.0625-4.046875 26.183594-17.816406 26.183594-34.140625 0-19.496094-15.859376-35.355469-35.351563-35.355469-19.496094 0-35.359375 15.859375-35.359375 35.355469 0 15.707031 10.300781 29.050781 24.5 33.640625-5.101562 63.695312 16.46875 115.246094 59.976562 142.355468l53.835938 99.019532v20.984375c0 41.695312 16.34375 81 46.019531 110.675781s68.984375 46.019531 110.675781 46.019531c41.691407 0 80.996094-16.34375 110.671876-46.019531 29.679687-29.675781 46.023437-68.980469 46.023437-110.675781 0-5.519531-4.476563-10-10-10zm-201.441406-286c0-8.46875 6.886719-15.355469 15.355469-15.355469 8.464843 0 15.355468 6.886719 15.355468 15.355469 0 8.464843-6.890625 15.355469-15.355468 15.355469-8.46875 0-15.355469-6.890626-15.355469-15.355469zm-204.90625-15.355469c8.464843 0 15.355469 6.886719 15.355469 15.355469 0 8.464843-6.890626 15.355469-15.355469 15.355469-8.46875 0-15.355469-6.890626-15.355469-15.355469 0-8.46875 6.886719-15.355469 15.355469-15.355469zm147.347656 203.636719-34.390625 63.253906-33.84375-62.25c10.621094 3.027344 21.574219 4.546875 32.515625 4.546875 12.082031 0 24.140625-1.863281 35.71875-5.550781zm0 0"/><path d="m441.703125 293.890625c-5.523437 0-10 4.476563-10 10v.140625c0 5.519531 4.476563 10 10 10s10-4.480469 10-10v-.140625c0-5.523437-4.476563-10-10-10zm0 0"/><path d="m512 186.28125c0-38.894531-31.535156-70.539062-70.296875-70.539062s-70.296875 31.644531-70.296875 70.539062c0 35.492188 26.257812 64.929688 60.296875 69.816406v20.121094c0 5.523438 4.476563 10 10 10s10-4.476562 10-10v-20.121094c34.039063-4.886718 60.296875-34.324218 60.296875-69.816406zm-70.296875 12.335938c-6.753906 0-12.246094-5.53125-12.246094-12.335938 0-6.800781 5.492188-12.332031 12.246094-12.332031s12.246094 5.53125 12.246094 12.332031c0 6.804688-5.492188 12.335938-12.246094 12.335938zm10 37.203124v-18.800781c12.898437-4.230469 22.246094-16.40625 22.246094-30.738281 0-17.828125-14.464844-32.332031-32.246094-32.332031s-32.246094 14.503906-32.246094 32.332031c0 14.332031 9.347657 26.503906 22.246094 30.734375v18.800781c-22.960937-4.671875-40.296875-25.105468-40.296875-49.535156 0-27.867188 22.5625-50.539062 50.296875-50.539062s50.296875 22.671874 50.296875 50.539062c0 24.429688-17.339844 44.867188-40.296875 49.539062zm0 0"/><path d="m295.007812 437.734375c29.402344 0 53.324219-24 53.324219-53.5s-23.921875-53.5-53.324219-53.5c-29.402343 0-53.324218 24-53.324218 53.5s23.921875 53.5 53.324218 53.5zm0-87c18.375 0 33.324219 15.027344 33.324219 33.5s-14.949219 33.5-33.324219 33.5-33.324218-15.027344-33.324218-33.5 14.949218-33.5 33.324218-33.5zm0 0"/><path d="m358.960938 342.796875c17.527343 0 31.789062-15.082031 31.789062-33.613281 0-18.535156-14.261719-33.613282-31.789062-33.613282-17.527344 0-31.789063 15.078126-31.789063 33.613282 0 18.53125 14.261719 33.613281 31.789063 33.613281zm0-47.226563c6.5 0 11.789062 6.105469 11.789062 13.609376 0 7.507812-5.289062 13.613281-11.789062 13.613281s-11.789063-6.105469-11.789063-13.613281c0-7.503907 5.289063-13.609376 11.789063-13.609376zm0 0"/><path d="m263.925781 279.667969c0 18.53125 14.257813 33.613281 31.785157 33.613281 17.53125 0 31.789062-15.082031 31.789062-33.613281 0-18.535157-14.257812-33.613281-31.789062-33.613281-17.527344 0-31.785157 15.078124-31.785157 33.613281zm31.785157-13.613281c6.5 0 11.789062 6.105468 11.789062 13.613281 0 7.503906-5.289062 13.613281-11.789062 13.613281-6.496094 0-11.785157-6.109375-11.785157-13.613281 0-7.507813 5.285157-13.613281 11.785157-13.613281zm0 0"/><path d="m231.054688 275.570312c-17.527344 0-31.785157 15.078126-31.785157 33.609376 0 18.535156 14.257813 33.613281 31.785157 33.613281 17.527343 0 31.789062-15.078125 31.789062-33.613281 0-18.53125-14.261719-33.609376-31.789062-33.609376zm0 47.226563c-6.5 0-11.789063-6.109375-11.789063-13.613281 0-7.507813 5.289063-13.613282 11.789063-13.613282s11.789062 6.105469 11.789062 13.613282c0 7.503906-5.289062 13.613281-11.789062 13.613281zm0 0"/></svg>