<svg height="512pt" viewBox="0 -66 512.00375 512" width="512pt" xmlns="http://www.w3.org/2000/svg"><path d="m499.832031 275.585938-12.757812-97.886719c-2.621094.015625-5.246094.023437-7.875.027343-29.847657 32.664063-111.335938 66.078126-221.734375 66.078126-56.792969 0-108.992188-8.277344-148.824219-21.910157l-3.515625 18.378907-8.730469 45.601562c-7.28125 38.039062.601563 42.601562 32.683594 67.535156 1.667969 1.296875 3.367187 2.566406 5.085937 3.832032 121.636719 28.597656 285.433594 8.347656 354.160157-45.011719 17.738281-13.773438 14.265625-15.46875 11.507812-36.644531zm0 0" fill="#66e2e7" fill-rule="evenodd"/><path d="m137.824219 191.855469c-17.9375 4.671875-30.710938 16.628906-30.800781 29.476562 40.03125 13.964844 92.875 22.472657 150.445312 22.472657 120.238281 0 206.191406-39.640626 228.476562-74.773438-1.378906-20.125-7.371093-44.558594-32.203124-61.988281-29.636719-13.507813-67.335938-8.425781-93.808594 22.6875-30.566406-75.9375-128.425782-59.300781-139.804688-.699219-32.765625-15.28125-82.816406 16.238281-82.304687 62.824219zm0 0" fill="#e0ac91"/><path d="m329.78125 162.441406c0-10.292968 6.214844-19.132812 15.09375-22.980468-3.875-2.460938-8.472656-3.890626-13.402344-3.890626-13.828125 0-25.039062 11.210938-25.039062 25.039063s11.210937 25.039063 25.039062 25.039063c3.535156 0 6.898438-.738282 9.945313-2.058594-6.992188-4.441406-11.636719-12.25-11.636719-21.148438zm0 0" fill="#fff"/><g fill="#9d7463"><path d="m356.511719 160.609375c0-8.898437-4.644531-16.707031-11.636719-21.148437-8.878906 3.847656-15.09375 12.6875-15.09375 22.980468 0 8.898438 4.644531 16.707032 11.640625 21.148438 8.878906-3.847656 15.089844-12.6875 15.089844-22.980469zm0 0"/><path d="m224.675781 107.265625c0 2.398437.441407 4.691406 1.21875 6.824219 1.429688.324218 2.917969.515625 4.449219.515625 11.054688 0 20.011719-8.960938 20.011719-20.015625 0-2.398438-.445313-4.6875-1.21875-6.824219-1.433594-.324219-2.917969-.511719-4.449219-.511719-11.050781 0-20.011719 8.960938-20.011719 20.011719zm0 0" fill-rule="evenodd"/><path d="m129.976562 163.675781c0 3.628907.980469 7.019531 2.667969 9.957031.335938.015626.664063.050782 1.003907.050782 11.050781 0 20.011718-8.960938 20.011718-20.015625 0-3.625-.980468-7.019531-2.667968-9.953125-.335938-.019532-.664063-.050782-1.003907-.050782-11.050781 0-20.011719 8.960938-20.011719 20.011719zm0 0" fill-rule="evenodd"/></g><path d="m510.851562 281.84375c-.339843-2.214844-.730468-4.722656-1.097656-7.550781l-13.855468-106.320313c-1.328126-18.648437-6.085938-33.96875-14.539063-46.820312-10.769531-16.371094-27.574219-28.574219-50.003906-36.332032-11.269531-37.714843-45.285157-63.578124-84.601563-63.578124-21.617187 0-42.03125 7.949218-58.742187 22.644531-16.015625-27.734375-43.054688-43.886719-74.652344-43.886719-34.257813 0-63.933594 19.445312-74.679687 47.566406-3.710938-.785156-7.558594-1.179687-11.527344-1.179687-18.191406 0-37.554688 8.597656-51.800782 23-12.730468 12.871093-20.371093 29.09375-21.949218 46.316406-18.960938 7.160156-31.191406 21.46875-31.113282 37.171875l.035157 6.421875-9.988281 52.183594c-.003907.019531-.007813.042969-.011719.0625l-10.445313 54.554687c-2.472656 12.914063-3.054687 22.75 1.667969 31.863282 4.085937 7.882812 11.148437 13.355468 21.839844 21.644531l2.152343 1.671875c26.425782 20.53125 62.328126 36.097656 106.726563 46.265625 36.429687 8.339843 77.804687 12.691406 120.351563 12.691406 4.011718 0 8.035156-.039063 12.066406-.117187 95.207031-1.835938 182.488281-24.820313 227.777344-59.984376 18.378906-14.269531 19.0625-21.046874 16.390624-38.289062zm-445.222656-149.050781c4.445313-1.160157 7.535156-5.199219 7.484375-9.792969-.160156-14.601562 5.6875-28.640625 16.46875-39.542969 10.566407-10.683593 24.613281-17.0625 37.570313-17.0625 5.105468 0 9.824218.996094 14.027344 2.957031 2.792968 1.300782 6.027343 1.246094 8.773437-.152343 2.746094-1.398438 4.695313-3.984375 5.28125-7.007813 5.378906-27.691406 33.3125-42.179687 58.128906-42.179687 27.910157 0 51.300781 16.710937 62.570313 44.707031 1.308594 3.246094 4.21875 5.574219 7.679687 6.136719 3.457031.566406 6.953125-.722657 9.226563-3.390625 14.378906-16.902344 33.527344-26.210938 53.917968-26.210938 31.863282 0 59.246094 22.070313 66.585938 53.667969.808594 3.484375 3.421875 6.273437 6.847656 7.3125 44.125 13.363281 53.304688 40.710937 55.5 64.070313-11.511718 15.609374-37.558594 31.835937-70.671875 43.882812-29.597656 10.769531-79.222656 23.609375-147.550781 23.609375-123.164062 0-210.363281-38.28125-215.125-74.21875l-.035156-6.808594c-.042969-7.917969 9.980468-16.503906 23.320312-19.976562zm426.21875 162.261719c-.96875 2.523437-7.28125 7.425781-9.660156 9.269531-45.847656 35.601562-136.78125 55.996093-227.730469 55.992187-82.945312 0-165.90625-16.96875-214.632812-54.839844l-2.171875-1.683593c-19.316406-14.980469-19.6875-15.265625-16.113282-33.933594l7.152344-37.359375c12.132813 9.472656 26.386719 17.730469 43.164063 25.007812 1.296875.5625 2.644531.828126 3.976562.828126 3.863281 0 7.546875-2.253907 9.183594-6.027344 2.199219-5.066406-.128906-10.960938-5.195313-13.160156-19.152343-8.304688-34.511718-17.890626-46.8125-29.195313l3.628907-18.957031c12.769531 14.5 33.679687 27.441406 61.644531 37.832031 43.363281 16.113281 99.894531 24.984375 159.1875 24.984375 71.242188 0 123.28125-13.496094 154.394531-24.816406 27.988281-10.183594 51.21875-23.121094 66.984375-37.003906l11.0625 84.886718c.402344 3.066406.808594 5.703125 1.167969 8.027344.777344 5.03125 1.339844 8.664062.769531 10.148438zm0 0"/><path d="m106.878906 249.273438c-.183594-.054688-.375-.109376-.558594-.152344-5.355468-1.339844-10.792968 1.917968-12.132812 7.277344-1.308594 5.230468 1.761719 10.53125 6.894531 12.03125.945313.28125 1.902344.414062 2.847657.414062 4.304687 0 8.277343-2.800781 9.578124-7.132812 1.582032-5.265626-1.386718-10.816407-6.628906-12.4375zm0 0"/><path d="m350.058594 76.417969c.644531.070312 1.296875.160156 1.9375.269531 1.714844.292969 3.453125.730469 5.164062 1.308594 11.234375 3.785156 19.28125 12.84375 22.070313 24.851562 1.074219 4.621094 5.191406 7.746094 9.738281 7.746094.75 0 1.511719-.085938 2.273438-.261719 5.382812-1.25 8.730468-6.628906 7.480468-12.011719-4.328125-18.644531-17.480468-33.332031-35.175781-39.289062-2.695313-.910156-5.453125-1.605469-8.195313-2.074219-1.039062-.175781-2.097656-.324219-3.148437-.4375-5.496094-.582031-10.425781 3.382813-11.019531 8.878907-.59375 5.492187 3.378906 10.429687 8.875 11.019531zm0 0"/><path d="m323.6875 83.246094c1.867188 0 3.753906-.519532 5.433594-1.601563l.0625-.039062c4.671875-2.953125 6.058594-9.136719 3.105468-13.804688-2.957031-4.667969-9.136718-6.058593-13.808593-3.105469l-.324219.210938c-4.605469 3.019531-5.871094 9.179688-2.871094 13.796875 1.914063 2.945313 5.125 4.542969 8.402344 4.542969zm0 0"/><path d="m133.644531 183.6875c16.554688 0 30.019531-13.464844 30.019531-30.019531 0-16.550781-13.464843-30.015625-30.019531-30.015625-16.550781 0-30.015625 13.464844-30.015625 30.015625 0 16.554687 13.464844 30.019531 30.015625 30.019531zm0-40.023438c5.519531 0 10.007813 4.488282 10.007813 10.003907 0 5.519531-4.488282 10.007812-10.007813 10.007812-5.515625 0-10.003906-4.488281-10.003906-10.007812 0-5.515625 4.488281-10.003907 10.003906-10.003907zm0 0"/><path d="m331.472656 195.652344c19.324219 0 35.046875-15.71875 35.046875-35.042969s-15.722656-35.046875-35.046875-35.046875c-19.324218 0-35.042968 15.722656-35.042968 35.046875s15.71875 35.042969 35.042968 35.042969zm0-50.078125c8.289063 0 15.03125 6.746093 15.03125 15.035156s-6.742187 15.03125-15.03125 15.03125c-8.289062 0-15.03125-6.742187-15.03125-15.03125s6.742188-15.035156 15.03125-15.035156zm0 0"/><path d="m230.34375 124.609375c16.554688 0 30.019531-13.464844 30.019531-30.019531 0-16.550782-13.464843-30.015625-30.019531-30.015625-16.550781 0-30.015625 13.464843-30.015625 30.015625 0 16.554687 13.464844 30.019531 30.015625 30.019531zm0-40.023437c5.519531 0 10.007812 4.488281 10.007812 10.003906 0 5.519531-4.488281 10.007812-10.007812 10.007812-5.515625 0-10.003906-4.488281-10.003906-10.007812 0-5.515625 4.488281-10.003906 10.003906-10.003906zm0 0"/></svg>