<svg height="512pt" viewBox="0 -75 512.00125 512" width="512pt" xmlns="http://www.w3.org/2000/svg"><path d="m398.476562 22.054688c-4.765624-3.175782-10.539062-3.667969-15.53125-1.839844-1.367187.5-2.722656.300781-3.753906-.382813-1.03125-.6875-1.734375-1.859375-1.800781-3.3125-.242187-5.3125-2.925781-10.445312-7.691406-13.621093-7.949219-5.289063-18.679688-3.136719-23.96875 4.8125-4.226563 6.347656-3.699219 14.472656.734375 20.183593 2.214844 2.851563 1.984375 6.925781-.015625 9.933594l-30.394531 45.664063 28.78125 19.15625 30.394531-45.664063c2-3.007813 5.667969-4.792969 9.15625-3.851563 6.976562 1.890626 14.675781-.761718 18.902343-7.113281 5.289063-7.945312 3.136719-18.675781-4.8125-23.964843zm0 0" fill="#f9eac7"/><path d="m350.585938 94.003906 24.644531-37.019531c2-3.007813 5.667969-4.792969 9.15625-3.847656 6.976562 1.886719 14.675781-.765625 18.902343-7.113281 5.289063-7.949219 3.136719-18.679688-4.8125-23.96875-4.765624-3.175782-10.539062-3.667969-15.53125-1.839844-1.367187.5-2.722656.300781-3.753906-.382813l-42.992187 64.59375zm0 0" fill="#f4dbb3"/><path d="m350.585938 94.003906-5.753907 8.644532c-6.035156 9.066406-8.441406 20.058593-6.6875 30.808593 5.597657 34.324219 12.039063 77.070313-13.601562 108.152344-24.824219 30.097656-69.621094 37.261719-102.386719 16.082031-.304688-.199218-.5625-.433594-.863281-.632812-.300781-.203125-.617188-.347656-.917969-.554688-32.183594-22.050781-42.863281-66.140625-24.683594-100.660156 18.777344-35.648438 60.703125-46.203125 94.523438-54.289062 10.59375-2.53125 19.804687-8.996094 25.839844-18.0625l5.753906-8.644532zm0 0" fill="#ff8b5a"/><path d="m281.59375 213.019531c23.351562-32.601562 28.234375-67.8125 35.777344-93.390625 2.363281-8.007812 7.035156-17.492187 13.070312-26.558594l5.753906-8.644531 14.390626 9.578125-5.753907 8.644532c-6.035156 9.066406-8.441406 20.058593-6.6875 30.808593 5.59375 34.324219 12.039063 77.070313-13.601562 108.152344-24.824219 30.097656-69.621094 37.261719-102.386719 16.082031-.164062-.105468-.3125-.222656-.460938-.339844 11.183594 6.554688 37.371094-12.875 59.898438-44.332031zm0 0" fill="#ff7350"/><path d="m424.273438 148.914062c-6.699219-3.289062-13.957032-5.285156-21.265626-6.777343l-96.976562-19.769531-80.019531-16.003907c-96.269531-19.257812-186.085938 54.375-186.085938 152.550781 0 19.058594 5.210938 36.867188 14.15625 52.234376h332.503907c47.214843 0 85.488281-38.277344 85.488281-85.488282 0-33.210937-19.101563-62.660156-47.800781-76.746094zm0 0" fill="#ffa95f"/><path d="m2.320312 320.648438 54.828126 36.550781c5.675781 3.785156 12.351562 5.804687 19.175781 5.804687h359.355469c6.824218 0 13.496093-2.019531 19.175781-5.804687l54.828125-36.550781c4.269531-2.847657 2.253906-9.5-2.878906-9.5h-501.609376c-5.1289058 0-7.144531 6.652343-2.875 9.5zm0 0" fill="#f9eac7"/><path d="m162.546875 294.292969c-28.832031 0-53.316406-22.832031-53.476563-51.664063 0-.191406 0-.382812 0-.570312 0-61.421875 35.09375-113.28125 84.988282-138.753906-83.3125.570312-154.132813 68.398437-154.132813 155.609374 0 19.0625 5.207031 36.867188 14.152344 52.234376h332.507813c19.058593 0 36.765624-6.3125 50.980468-16.855469zm0 0" fill="#ff8b5a"/><path d="m489.824219 58.554688c-4.050781-4.050782-9.609375-5.667969-14.867188-4.859376-1.4375.21875-2.726562-.242187-3.601562-1.117187-.878907-.875-1.335938-2.164063-1.117188-3.601563.808594-5.257812-.8125-10.816406-4.859375-14.867187-6.753906-6.75-17.695312-6.75-24.449218 0-5.390626 5.394531-6.476563 13.464844-3.25 19.933594 1.609374 3.234375.582031 7.179687-1.972657 9.738281l-38.789062 38.789062 24.449219 24.445313 38.785156-38.789063c2.554687-2.554687 6.503906-3.582031 9.738281-1.972656 6.46875 3.222656 14.539063 2.140625 19.933594-3.253906 6.75-6.75 6.75-17.695312 0-24.445312zm0 0" fill="#f9eac7"/><path d="m428.707031 119.671875 31.445313-31.445313c2.554687-2.554687 6.503906-3.582031 9.738281-1.972656 6.46875 3.226563 14.539063 2.140625 19.933594-3.25 6.75-6.753906 6.75-17.699218 0-24.449218-4.050781-4.046876-9.613281-5.667969-14.871094-4.859376-1.433594.222657-2.726563-.238281-3.601563-1.113281l-54.867187 54.867188zm0 0" fill="#f4dbb3"/><path d="m428.707031 119.671875-7.339843 7.34375c-7.703126 7.699219-12.226563 18.003906-12.625 28.886719-1.269532 34.753906-3.363282 77.933594-34.621094 103.359375-30.261719 24.621093-75.59375 22.828125-103.550782-4.386719-.257812-.253906-1.257812-1.253906-1.511718-1.511719-27.214844-27.957031-29.007813-73.285156-4.386719-103.550781 25.425781-31.257812 68.605469-33.351562 103.359375-34.621094 10.882812-.398437 21.1875-4.921875 28.886719-12.621094l7.34375-7.34375zm0 0" fill="#ff8b5a"/><path d="m337.636719 222.777344c29.316406-27.367188 41.03125-60.929688 53.460937-84.519532 3.894532-7.390624 10.34375-15.765624 18.046875-23.46875l7.339844-7.339843 12.222656 12.222656-7.339843 7.339844c-7.703126 7.703125-12.226563 18.003906-12.625 28.890625-1.269532 34.753906-3.363282 77.933594-34.621094 103.359375-30.261719 24.621093-75.59375 22.828125-103.550782-4.386719-.140624-.136719-.316406-.296875-.441406-.441406 9.675782 8.625 39.230469-5.25 67.507813-31.65625zm0 0" fill="#ff7350"/><path d="m126.355469 311.148438h-121.160157c-5.1289058 0-7.144531 6.65625-2.875 9.5l54.824219 36.550781c5.679688 3.789062 12.351563 5.808593 19.179688 5.808593h359.351562c6.828125 0 13.5-2.019531 19.179688-5.808593l17.21875-11.480469h-311.148438c-19.089843 0-34.570312-15.476562-34.570312-34.570312zm0 0" fill="#f4dbb3"/></svg>