<?xml version="1.0" encoding="iso-8859-1"?>
<!-- Generator: Adobe Illustrator 19.0.0, SVG Export Plug-In . SVG Version: 6.00 Build 0)  -->
<svg version="1.1" id="Capa_1" xmlns="http://www.w3.org/2000/svg" xmlns:xlink="http://www.w3.org/1999/xlink" x="0px" y="0px"
	 viewBox="0 0 512 512" style="enable-background:new 0 0 512 512;" xml:space="preserve">
<path style="fill:#D26437;" d="M359.226,512c90.694,0,148.645-66.14,148.645-156.903c0-96-92.903-162.065-99.097-228.278
	c-4.495-48.051,32.043-64.924,71.738-52.04c4.768,1.548,9.233-3.065,7.225-7.658c-11.751-26.878-46.91-86.138-121.285-61.077
	c-87.781,29.578-58.839,151.891-34.065,214.859L359.226,512z"/>
<path style="fill:#DCAA82;" d="M24.774,272.516c-4.565,0-8.258-3.698-8.258-8.258v-10.766c0-4.56,3.694-8.258,8.258-8.258
	s8.258,3.698,8.258,8.258v10.766C33.032,268.819,29.339,272.516,24.774,272.516z"/>
<path style="fill:#965A50;" d="M24.774,305.548L24.774,305.548c-11.402,0-20.645-9.243-20.645-20.645v-8.258
	c0-11.402,9.243-20.645,20.645-20.645l0,0c11.402,0,20.645,9.243,20.645,20.645v8.258C45.419,296.305,36.176,305.548,24.774,305.548
	z"/>
<path style="fill:#F5DCB4;" d="M231.914,401.748c-32.155-35.969-48.516-81.947-48.516-81.947l63.656-28.704l21.333,59.871
	L231.914,401.748z"/>
<path style="fill:#D26437;" d="M163.79,94.968c-0.403,0-0.815-0.028-1.234-0.093c-4.508-0.673-7.621-4.879-6.944-9.391l3.097-20.645
	c0.677-4.5,4.806-7.633,9.395-6.94c4.508,0.673,7.621,4.879,6.944,9.391l-3.097,20.645C171.339,92.028,167.815,94.968,163.79,94.968
	z"/>
<path style="fill:#EB874B;" d="M212.945,168.258c-0.431-1.89-0.932-3.723-1.493-5.497c-6.902-21.843-32.732-41.133-55.418-44.311
	c-25.541-3.578-51.843,3.628-70.838,21.203c-24.386,22.564-34.163,52.342-36.988,67.019c-0.966,5.018,0.908,10.065,4.858,13.307
	c4.748,3.898,12.492,8.748,23.525,11.142c0,0,7.494,16.208,25.557,29.881c-26.787-0.096-48.267-5.392-57.203-1.648
	c-11.126,5.262-14.218,13.906-14.862,20.205c-0.499,4.891,2.997,9.261,7.829,10.165c13.452,2.516,43.213,6.801,74.387,20.297
	c56.429,24.43,84.028,14.215,98.065,7.656c28.903-13.506,56.678,0.449,36.387,29.419c-44.645,63.742,4.903,114.839,33.29,131.871
	h-36.645c-14.532,0-26.873,9.385-31.292,22.424c-1.771,5.225,2.428,10.608,7.945,10.608h132.208
	c16.997,0,32.748-8.918,41.493-23.493l10.678-17.797C471.871,333.076,367.268,173.42,212.945,168.258z"/>
<path style="fill:#B44632;" d="M158.974,78.933C149.444,88.312,142.5,108.5,138.515,118c-5.604,13.36,3.669,28.235,18.131,29.096
	l0,0c12.912,0.769,23.973-10.551,23.742-23.484c-0.258-14.452-4.673-35.96-9.704-43.544
	C168.086,76.154,162.322,75.638,158.974,78.933z"/>
<circle style="fill:#4B3F4E;" cx="107.36" cy="177.551" r="12.387"/>
<path style="fill:#F5DCB4;" d="M112.774,229.678c-14.323,3.115-26.585,3.39-35.968,1.445c0,0,7.494,16.208,25.557,29.881
	c28.368,0.102,62.69-5.628,94.372-34.108c3.683-3.31,3.11-9.497-1.423-11.489C169.06,203.87,142.075,223.305,112.774,229.678z"/>
<g>
	<path style="fill:#D26437;" d="M62.981,226.247c12.779-19.074-0.541-29.856-10.733-33.858c-1.817,5.47-3.061,10.345-3.804,14.176
		c-0.985,5.084,0.912,10.207,4.922,13.484C55.785,222.027,58.99,224.234,62.981,226.247z"/>
	<path style="fill:#D26437;" d="M326.194,462.452h-2.163c-15.444,0-30.898-3.669-43.897-12.008
		c-37.785-24.24-42.754-71.78-39.146-94.203c-25.998,45.357-5.329,83.477,17.942,106.211h0.194
		c7.24,7.073,14.726,12.67,21.135,16.516h45.935c4.56,0,8.258-3.698,8.258-8.258C334.452,466.149,330.754,462.452,326.194,462.452z"
		/>
</g>
<path style="fill:#EB874B;" d="M507.871,355.097c0-96-92.903-162.065-99.097-228.278c-4.494-48.05,32.043-64.923,71.738-52.039
	c2.71,0.88,5.278-0.262,6.659-2.227c-33.322-52.595-98.354-62.229-124.849-23.004c-30.75,45.527-12.043,112.516,38.194,165.161
	c30.616,32.084,131.441,173.419,45.285,271.772C485.106,459.159,507.871,411.969,507.871,355.097z"/>
<g>
</g>
<g>
</g>
<g>
</g>
<g>
</g>
<g>
</g>
<g>
</g>
<g>
</g>
<g>
</g>
<g>
</g>
<g>
</g>
<g>
</g>
<g>
</g>
<g>
</g>
<g>
</g>
<g>
</g>
</svg>
