<svg width="116" height="43" viewBox="0 0 116 43" xmlns="http://www.w3.org/2000/svg"><title>Artboard</title><g fill="none" fill-rule="evenodd"><path fill="#C00" d="M0 0h116v16.26H0z"/><path d="M34.106 12.492V3.668h2.875c1.09 0 1.785 0 2.082.1.496.099.893.396 1.29.892.297.396.495.991.495 1.685 0 .496-.1.992-.298 1.388-.198.397-.396.694-.694.893-.297.198-.594.297-.892.396-.396.1-.991.1-1.785.1h-1.19v3.271h-1.883v.1zm1.685-7.336v2.478h.992c.694 0 1.19 0 1.388-.099.198-.1.397-.198.595-.397.099-.198.198-.396.198-.694 0-.297-.099-.594-.297-.793-.199-.198-.397-.297-.694-.396-.199 0-.595-.1-1.29-.1h-.892zm13.187 7.336h-1.884l-.793-1.983h-3.47l-.694 1.983h-1.884l3.37-8.824h1.885l3.47 8.824zm-3.173-3.47l-1.19-3.272-1.19 3.272h2.38zm4.363-5.354h6.543v1.488h-4.759v1.982h2.38c.694 0 1.19.1 1.586.199a3.1 3.1 0 0 1 1.09.892c.298.496.496.992.496 1.586 0 .595-.198 1.091-.495 1.488a3.1 3.1 0 0 1-1.091.892c-.397.198-.992.198-1.686.198h-4.164V3.668h.1zm1.784 7.337h1.686c.594 0 .892 0 1.19-.099.198-.1.396-.198.594-.397.199-.198.298-.396.298-.694 0-.396-.1-.694-.397-.892-.297-.198-.793-.297-1.487-.297H52.05v2.38h-.099zm6.742-2.875c0-.892.1-1.686.397-2.28.198-.397.495-.893.793-1.19.297-.397.694-.595 1.09-.793a5.772 5.772 0 0 1 1.884-.298c1.289 0 2.28.397 3.074 1.19.793.793 1.19 1.884 1.19 3.37 0 1.389-.397 2.48-1.19 3.273-.794.793-1.785 1.19-3.074 1.19s-2.38-.397-3.073-1.19c-.694-.793-1.091-1.884-1.091-3.272zm1.884-.1c0 .992.198 1.785.694 2.281.496.496.991.793 1.784.793.694 0 1.29-.297 1.686-.793.496-.496.694-1.289.694-2.28 0-.992-.198-1.785-.694-2.28-.397-.496-.992-.695-1.785-.695-.694 0-1.289.298-1.784.794-.397.495-.595 1.19-.595 2.18zm9.617 4.462V5.156h-2.578V3.668h6.94v1.488H71.98v7.336h-1.784zm12.591 0h-1.883l-.794-1.983h-3.47l-.694 1.983h-1.883l3.37-8.724h1.884l3.47 8.724zm-3.172-3.47l-1.29-3.272-1.189 3.272h2.479z" fill="#FFF" fill-rule="nonzero"/><path d="M19.333 26.57v-6.245H0v6.246h5.651v14.277h8.031V26.57h5.651zm46.202 0v-6.245H46.202v6.246h5.651v14.277h8.03V26.57h5.652z" fill="#001BA8"/><path d="M43.921 20.325h-8.03v6.246h3.965l-7.138 9.419-7.139-9.42h3.966v-6.245h-7.931v13.087c0 4.462 3.866 8.526 11.104 8.526 6.841 0 11.104-4.064 11.104-8.526V20.325h.1z" fill="#C00"/><path d="M73.566 20.325h13.087c6.246 0 7.436 8.229 2.776 10.013 5.552 1.19 5.75 10.51-2.181 10.51H73.566V20.325zm7.337 8.03h2.676c2.578 0 2.578-3.37 0-3.37h-2.676v3.37zm0 7.932h3.172a1.99 1.99 0 0 0 0-3.966h-3.172v3.966z" fill="#001BA8" fill-rule="nonzero"/><path fill="#001BA8" d="M107.97 32.321L116 20.325h-8.526l-3.47 5.949-3.372-5.95h-8.625l8.03 11.997v8.527h7.932z"/><circle fill="#001BA8" cx="66.725" cy="38.171" r="3.569"/></g></svg>