<svg viewBox="0 0 110 30" fill="none" xmlns="http://www.w3.org/2000/svg">
    <path d="M23.68 24.77L27.06 5.4h5.42l-3.39 19.37h-5.41zM48.67 5.8A14.4 14.4 0 0043.81 5c-5.35 0-9.13 2.62-9.16 6.4-.03 2.78 2.7 4.33 4.75 5.25 2.11.95 2.82 1.56 2.81 2.4-.01 1.3-1.69 1.9-3.24 1.9-2.16 0-3.33-.3-5.1-1l-.7-.31-.76 4.33c1.27.53 3.61 1 6.04 1.03 5.7 0 9.4-2.6 9.44-6.62.02-2.2-1.43-3.88-4.55-5.26-1.89-.9-3.05-1.5-3.04-2.4 0-.8.98-1.66 3.1-1.66 1.78-.03 3.06.34 4.06.73l.48.23.73-4.2zm13.94-.41h-4.19c-1.3 0-2.27.35-2.84 1.6l-8.04 17.76h5.69l1.14-2.91 6.94.01.66 2.9h5.02L62.61 5.4zm-6.65 12.5l2.17-5.4c-.03.04.44-1.12.71-1.85l.37 1.66 1.26 5.6h-4.5zM19.07 5.4l-5.3 13.2-.58-2.68c-.99-3.1-4.06-6.45-7.5-8.13l4.85 16.95 5.74-.01L24.8 5.39l-5.73.01z" fill="#999"/>
    <path d="M8.81 5.4H.07L0 5.8c6.8 1.6 11.3 5.48 13.16 10.14l-1.9-8.9C10.95 5.8 10 5.43 8.81 5.4z" fill="#999"/>
    <g clip-path="url(#clip0)" fill="#999">
        <path d="M72.36 12.14l-2.08-6.42h.9l1 3.16c.27.87.5 1.64.67 2.4h.03c.17-.74.44-1.55.72-2.38l1.09-3.18h.89l-2.3 6.42h-.92zM76.03 9.98c.02 1.13.74 1.6 1.57 1.6.6 0 .96-.1 1.28-.23l.15.6c-.3.12-.8.27-1.53.27-1.43 0-2.26-.94-2.26-2.32 0-1.39.8-2.5 2.15-2.5 1.51 0 1.9 1.33 1.9 2.18l-.02.38-3.24.02zm2.45-.6c.02-.52-.22-1.36-1.17-1.36-.86 0-1.22.8-1.28 1.37h2.45zM79.95 8.96c0-.53 0-1-.05-1.43h.73l.02.9h.04c.22-.62.73-1 1.28-1a.8.8 0 01.23.02v.79c-.08-.02-.17-.02-.27-.02-.6 0-1 .44-1.13 1.06-.02.1-.04.26-.04.38v2.45h-.83V8.96h.02zM83.65 6.24c0 .27-.19.5-.53.5a.5.5 0 01-.51-.5c0-.3.21-.54.53-.54.3 0 .51.24.51.54zm-.93 1.3h.83v4.6h-.83v-4.6zM84.65 12.14V8.17h-.64v-.64h.64v-.2c0-.65.15-1.24.54-1.63.32-.3.72-.42 1.13-.42.3 0 .55.06.72.12l-.1.64c-.13-.06-.3-.1-.54-.1-.7 0-.9.61-.9 1.34v.25h1.11v.64h-1.1v3.97h-.86zM88.34 6.24c.02.27-.2.5-.53.5a.5.5 0 01-.52-.5c0-.3.22-.54.54-.54.32 0 .5.24.5.54zm-.94 1.3h.83v4.6h-.83v-4.6zM89.72 9.98c.02 1.13.75 1.6 1.58 1.6.6 0 .96-.1 1.28-.23l.15.6c-.3.12-.81.27-1.54.27-1.42 0-2.25-.94-2.25-2.32 0-1.39.8-2.5 2.15-2.5 1.5 0 1.9 1.33 1.9 2.18 0 .17-.03.3-.03.38l-3.24.02zm2.45-.6c0-.52-.21-1.36-1.17-1.36-.85 0-1.21.8-1.28 1.37h2.45zM97.63 5.38v5.56c0 .4 0 .88.04 1.2h-.75l-.04-.81h-.02c-.26.5-.81.89-1.58.89-1.1 0-1.96-.94-1.96-2.34 0-1.54.94-2.47 2.07-2.47.7 0 1.17.34 1.38.7h.02V5.38h.84zm-.84 4.03c0-.1 0-.26-.04-.36a1.24 1.24 0 00-1.21-.98c-.88 0-1.39.76-1.39 1.79 0 .93.45 1.7 1.37 1.7.55 0 1.06-.36 1.23-1 .02-.1.04-.24.04-.36v-.8zM100.71 12.14c.03-.32.05-.8.05-1.2V5.38h.83v2.9h.02c.3-.51.83-.85 1.57-.85 1.15 0 1.96.96 1.94 2.34 0 1.64-1.04 2.47-2.06 2.47-.66 0-1.2-.25-1.54-.87h-.02l-.04.77h-.75zm.88-1.86a1.3 1.3 0 001.3 1.28c.87 0 1.4-.72 1.4-1.77 0-.91-.47-1.7-1.36-1.7-.58 0-1.1.38-1.28 1.02-.02.09-.04.21-.04.34v.83h-.02zM106.04 7.53l1 2.73.3.94h.02c.08-.28.17-.64.3-.96l.91-2.7h.9l-1.26 3.27c-.6 1.58-1 2.39-1.57 2.88-.41.36-.81.51-1.03.53l-.21-.7a2.44 2.44 0 001.5-1.53l-.07-.22-1.7-4.24h.9zM84.16 15.27l-2.53 6.4-1.02-5.45c-.13-.61-.6-.95-1.13-.95h-4.16l-.06.27c.85.2 1.81.5 2.4.81.37.2.48.36.58.83l1.94 7.52h2.6l3.96-9.43h-2.58zM87.78 15.27l-2.02 9.43h2.45l2-9.43h-2.43zM93.43 17.89c0-.34.34-.7 1.04-.8a4.57 4.57 0 012.41.43l.43-2a6.58 6.58 0 00-2.28-.42c-2.41 0-4.11 1.27-4.14 3.13-.02 1.36 1.22 2.1 2.13 2.55.96.47 1.28.75 1.26 1.17 0 .64-.77.92-1.45.92-1.23.02-1.94-.34-2.51-.6l-.45 2.07a7.3 7.3 0 002.7.49c2.56 0 4.25-1.26 4.25-3.24.04-2.45-3.41-2.6-3.4-3.7zM100.48 21.36l1.3-3.54.72 3.54h-2.02zm.94-6.1c-.47 0-.88.28-1.05.69l-3.66 8.73h2.56l.5-1.4h3.14l.3 1.4h2.25l-1.96-9.44h-2.08v.03z"/>
    </g>
    <defs>
        <clipPath id="clip0">
            <path fill="#fff" d="M70 5h39.7v20H70z"/>
        </clipPath>
    </defs>
</svg>
