<?xml version="1.0" encoding="iso-8859-1"?>
<!-- Generator: Adobe Illustrator 19.0.0, SVG Export Plug-In . SVG Version: 6.00 Build 0)  -->
<svg xmlns="http://www.w3.org/2000/svg" xmlns:xlink="http://www.w3.org/1999/xlink" version="1.1" id="Capa_1" x="0px" y="0px" viewBox="0 0 512 512" style="enable-background:new 0 0 512 512;" xml:space="preserve" width="512px" height="512px">
<g>
	<g>
		<path d="M466.994,127.016H448.48l29.123-28.974c17.547-17.547,17.547-46.1,0-63.647c-17.547-17.547-46.1-17.548-63.675,0.027    l-28.947,29.095V45.003C384.981,20.189,364.667,0,339.699,0c-24.664,0-44.73,20.189-44.73,45.003v62.487    c-43.947-4.248-88.551,15.584-114.178,55.189L8.292,431.637c-13.262,20.496-10.358,47.901,6.904,65.164    c17.302,17.301,44.713,20.137,65.113,6.936l269.06-172.564c39.712-25.696,59.363-70.435,55.138-114.145h62.487    c24.814,0,45.003-20.066,45.003-44.73C511.997,147.33,491.808,127.016,466.994,127.016z M351.581,290.26l-43.707-43.707    c-5.858-5.859-15.357-5.858-21.216,0c-5.859,5.859-5.859,15.357,0,21.216l41.416,41.416l-103.407,66.321l-22.873-22.873    c-5.858-5.859-15.356-5.859-21.216,0c-5.859,5.859-5.859,15.357,0,21.216l18.237,18.237L64.06,478.514    c-8.697,5.627-20.325,4.395-27.649-2.929c-7.324-7.324-8.556-18.952-2.896-27.7l53.234-83.002l8.966,8.966    c5.858,5.859,15.357,5.859,21.216,0s5.859-15.357,0-21.216l-13.602-13.602l66.32-103.407l32.144,32.144    c5.857,5.858,15.356,5.86,21.216,0c5.859-5.859,5.859-15.357,0-21.216l-36.78-36.781l19.784-30.847    c31.838-49.204,99.307-55.868,139.961-17.232C379.721,193.766,387.942,250.132,351.581,290.26z M466.994,187.024h-69.325    c-2.744-7.477-6.238-14.736-10.473-21.676c-4.915-8.053-10.791-15.558-17.511-22.33c-12.321-12.416-27.472-22.363-44.712-28.69    V45.003c0-8.41,6.469-14.999,14.726-14.999c8.424,0,15.278,6.729,15.278,14.999v54.863c0,6.075,3.663,11.549,9.278,13.867    c5.616,2.318,12.074,1.02,16.358-3.286l54.556-54.836c5.851-5.85,15.368-5.849,21.216,0c5.85,5.85,5.85,15.367,0.027,21.189    l-54.863,54.584c-9.448,9.4-2.802,25.637,10.581,25.637h54.863c8.27,0,14.999,6.854,14.999,15.278    C481.993,180.555,475.404,187.024,466.994,187.024z" fill="#ed5328"/>
	</g>
</g>
<g>
</g>
<g>
</g>
<g>
</g>
<g>
</g>
<g>
</g>
<g>
</g>
<g>
</g>
<g>
</g>
<g>
</g>
<g>
</g>
<g>
</g>
<g>
</g>
<g>
</g>
<g>
</g>
<g>
</g>
</svg>
