<?xml version="1.0" encoding="iso-8859-1"?>
<!-- Generator: Adobe Illustrator 19.0.0, SVG Export Plug-In . SVG Version: 6.00 Build 0)  -->
<svg version="1.1" id="Layer_1" xmlns="http://www.w3.org/2000/svg" xmlns:xlink="http://www.w3.org/1999/xlink" x="0px" y="0px"
	 viewBox="0 0 512 512" style="enable-background:new 0 0 512 512;" xml:space="preserve">
<g>
	<polygon style="fill:#ECF0F1;" points="477.288,399.181 130.169,399.181 78.102,173.554 512,173.554 	"/>
	<g>
		<path style="fill:#BDC3C7;" d="M182.237,477.283h-36.074c-4.044,0-7.55-2.794-8.461-6.725L52.215,99.366
			c-1.076-4.677,1.84-9.337,6.508-10.414c4.651-1.041,9.337,1.848,10.405,6.508l83.942,364.466h29.167
			c4.799,0,8.678,3.888,8.678,8.678S187.036,477.283,182.237,477.283"/>
		<path style="fill:#BDC3C7;" d="M34.712,130.164C15.568,130.164,0,114.596,0,95.452S15.568,60.74,34.712,60.74
			s34.712,15.568,34.712,34.712S53.855,130.164,34.712,130.164"/>
		<path style="fill:#BDC3C7;" d="M216.949,511.994c-23.925,0-43.39-19.465-43.39-43.39c0-23.925,19.465-43.39,43.39-43.39
			s43.39,19.465,43.39,43.39C260.339,492.53,240.874,511.994,216.949,511.994"/>
		<path style="fill:#BDC3C7;" d="M390.508,511.994c-23.925,0-43.39-19.465-43.39-43.39c0-23.925,19.465-43.39,43.39-43.39
			s43.39,19.465,43.39,43.39C433.898,492.53,414.434,511.994,390.508,511.994"/>
		<path style="fill:#BDC3C7;" d="M355.797,477.283H251.661c-4.799,0-8.678-3.888-8.678-8.678s3.879-8.678,8.678-8.678h104.136
			c4.799,0,8.678,3.888,8.678,8.678S360.596,477.283,355.797,477.283"/>
		<path style="fill:#BDC3C7;" d="M459.932,477.283H425.22c-4.799,0-8.678-3.888-8.678-8.678s3.879-8.678,8.678-8.678h34.712
			c4.799,0,8.678,3.888,8.678,8.678S464.731,477.283,459.932,477.283"/>
	</g>
	<polygon style="fill:#E64C3C;" points="402.28,95.177 177.339,112.811 168.852,17.943 393.767,0.006 	"/>
	<polygon style="fill:#F0C419;" points="269.014,173.554 373.15,173.554 373.15,130.164 269.014,130.164 	"/>
	<polygon style="fill:#4482C3;" points="130.167,173.554 269.014,173.554 269.014,112.808 130.167,112.808 	"/>
	<polygon style="fill:#F29C1F;" points="396.932,95.605 373.154,97.497 373.154,173.55 494.646,173.55 494.646,95.605 	"/>
</g>
<g>
</g>
<g>
</g>
<g>
</g>
<g>
</g>
<g>
</g>
<g>
</g>
<g>
</g>
<g>
</g>
<g>
</g>
<g>
</g>
<g>
</g>
<g>
</g>
<g>
</g>
<g>
</g>
<g>
</g>
</svg>
