<?xml version="1.0" encoding="iso-8859-1"?>
<!-- Generator: Adobe Illustrator 19.0.0, SVG Export Plug-In . SVG Version: 6.00 Build 0)  -->
<svg xmlns="http://www.w3.org/2000/svg" xmlns:xlink="http://www.w3.org/1999/xlink" version="1.1" id="Layer_1" x="0px" y="0px" viewBox="0 0 503.607 503.607" style="enable-background:new 0 0 503.607 503.607;" xml:space="preserve" width="512px" height="512px">
<g transform="translate(1 1)">
	<g>
		<g>
			<path d="M421.07,148.419l12.665-12.665l6.655,6.774c1.679,1.679,3.357,2.518,5.875,2.518s4.197-0.839,5.875-2.518l7.554-6.715     c12.59-13.43,12.59-34.413,0-47.003l-12.59-12.59c-13.43-12.59-34.413-12.59-47.003,0l-6.715,6.715     c-3.357,3.357-3.357,8.393,0,11.751l5.407,5.504l-13.067,13.067C354.741,88.723,317.006,72.4,275.879,67.62V49.361h16.787     c5.036,0,8.393-3.357,8.393-8.393V7.393c0-5.036-3.357-8.393-8.393-8.393h-83.934c-5.036,0-8.393,3.357-8.393,8.393v33.574     c0,5.036,3.357,8.393,8.393,8.393h16.787v18.259c-41.334,4.805-79.24,21.272-110.313,46.011l-13.07-13.07l5.875-5.875     c3.357-3.357,3.357-8.393,0-11.751l-5.875-6.715c-12.59-12.59-33.574-12.59-46.164,0l-13.43,13.43     c-12.59,12.59-12.59,33.574,0,46.164l6.715,6.715c1.679,1.679,3.357,2.518,5.875,2.518c1.679,0,4.197-0.839,5.036-2.518     l6.715-6.715l13.07,13.07c-29.687,37.289-47.483,84.411-47.483,135.494c0,59.607,23.896,113.488,62.503,152.804     c0.355,0.575,0.777,1.126,1.287,1.636c0.588,0.588,1.179,1.067,1.803,1.449c39.43,38.589,93.367,62.341,152.636,62.341     c59.409,0,113.462-23.863,152.916-62.613c0.547-0.332,1.067-0.721,1.524-1.177c0.509-0.509,0.932-1.061,1.287-1.636     c38.608-39.316,62.503-93.196,62.503-152.804C468.928,233.081,450.981,185.781,421.07,148.419z M434.515,87.971l12.59,12.59     c6.715,5.875,6.715,15.948,0,22.662l-0.839,0.839L411.013,88.81C417.728,82.095,427.8,82.095,434.515,87.971z M435.354,292.771     h16.598c-2.04,49.134-21.892,93.865-53.237,127.872l-16.239-16.239c-3.357-3.357-8.393-3.357-11.751,0     c-3.357,3.357-3.357,8.393,0,11.751l16.239,16.239c-34.007,31.345-78.739,51.196-127.872,53.237v-16.598     c0-5.036-3.357-8.393-8.393-8.393s-8.393,3.357-8.393,8.393v16.598c-49.134-2.04-93.865-21.892-127.872-53.237l16.239-16.239     c3.357-3.357,3.357-8.393,0-11.751c-3.357-3.357-8.393-3.357-11.751,0l-16.239,16.239     c-31.345-34.007-51.196-78.738-53.237-127.872h16.598c5.036,0,8.393-3.357,8.393-8.393c0-5.036-3.357-8.393-8.393-8.393H49.445     c2.04-49.134,21.892-93.865,53.237-127.872l16.239,16.239c1.679,1.679,3.357,2.518,5.875,2.518c2.518,0,4.197-0.839,5.875-2.518     c3.357-3.357,3.357-8.393,0-11.751l-16.239-16.239c31.95-29.449,73.366-48.753,119.006-52.673     c0.435,0.051,0.873,0.086,1.312,0.086c2.663-0.19,5.148-0.335,7.554-0.439v16.387c0,5.036,3.357,8.393,8.393,8.393     s8.393-3.357,8.393-8.393V83.318c2.629,0.105,5.389,0.256,8.393,0.456c0.328,0,0.64-0.016,0.941-0.044     c43.023,3.797,82.275,21.261,113.351,48.006c1.731,1.681,3.45,3.237,5.099,4.713L370.725,152.6     c-3.357,3.357-3.357,8.393,0,11.751c1.679,1.679,3.357,2.518,5.875,2.518c2.518,0,4.197-0.839,5.875-2.518l16.107-16.107     c1.522,1.692,3.123,3.442,4.877,5.195c0.321,0.482,0.682,0.885,1.059,1.25c27.979,33.104,45.522,75.267,47.434,121.294h-16.598     c-5.036,0-8.393,3.357-8.393,8.393C426.961,289.413,430.318,292.771,435.354,292.771z M411.013,136.652     c-0.27-0.27-0.567-0.567-0.874-0.874c-1.091-1.17-2.195-2.327-3.311-3.473c-0.411-0.844-0.968-1.646-1.69-2.368     c-0.67-0.67-1.409-1.201-2.187-1.603c-1.058-1.209-2.231-2.461-3.688-3.433l11.751-11.751l11.751,11.751L411.013,136.652z      M217.125,15.787h67.148v16.787h-16.787h-33.574h-16.787V15.787z M242.305,66.148V49.361h16.787v16.787c-2.518,0-5.875,0-8.393,0     S244.823,66.148,242.305,66.148z M54.292,124.902c-5.875-6.715-5.875-16.787,0-22.662l13.43-13.43     c2.518-3.357,6.715-5.036,10.911-5.036s8.393,1.679,10.911,4.197l0.839,2.518l-1.928,1.928c-1.423,0.358-2.786,1.108-3.947,2.269     l-23.502,23.502c-1.161,1.161-1.911,2.524-2.269,3.947l-3.607,3.607L54.292,124.902z M84.645,118.05l5.739-5.739l11.751,11.751     c-1.679,1.679-4.197,4.197-5.875,5.875c-1.679,1.679-4.197,3.357-5.875,5.875l-11.751-11.751L84.645,118.05z" fill="#ed5328"/>
			<path d="M259.092,251.873V141.689c0-5.036-3.357-8.393-8.393-8.393s-8.393,3.357-8.393,8.393v110.185     c-14.439,3.752-25.18,16.934-25.18,32.504c0,18.466,15.108,33.574,33.574,33.574s33.574-15.108,33.574-33.574     C284.272,268.807,273.53,255.625,259.092,251.873z M250.698,301.164c-9.233,0-16.787-7.554-16.787-16.787     c0-9.233,7.554-16.787,16.787-16.787c9.233,0,16.787,7.554,16.787,16.787C267.485,293.61,259.931,301.164,250.698,301.164z" fill="#ed5328"/>
		</g>
	</g>
</g>
<g>
</g>
<g>
</g>
<g>
</g>
<g>
</g>
<g>
</g>
<g>
</g>
<g>
</g>
<g>
</g>
<g>
</g>
<g>
</g>
<g>
</g>
<g>
</g>
<g>
</g>
<g>
</g>
<g>
</g>
</svg>
