<svg height="511pt" viewBox="0 0 511 511.34601" width="511pt" xmlns="http://www.w3.org/2000/svg"><path d="m493.792969 256.011719h-8.828125c-9.246094-.027344-16.902344-7.179688-17.558594-16.402344-8.605469-112.59375-103.941406-198.6875-216.824219-195.804687-112.886719 2.882812-203.703125 93.730468-206.550781 206.617187-2.847656 112.882813 83.273438 208.191406 195.871094 216.761719 9.152344.726562 16.222656 8.347656 16.257812 17.53125v8.933594c.011719 4.898437-2.011718 9.582031-5.585937 12.929687s-8.382813 5.058594-13.269531 4.726563c-136.113282-10.058594-240.398438-125.132813-237.054688-261.574219 3.34375-136.445313 113.144531-246.269531 249.585938-249.652344 136.441406-3.378906 251.542968 100.878906 261.636718 236.988281.339844 4.902344-1.375 9.722656-4.726562 13.3125-3.351563 3.59375-8.042969 5.632813-12.953125 5.632813zm0 0" fill="#e57e25"/><path d="m320.859375 54.246094c52.824219 16.863281 96.914063 53.789062 122.78125 102.835937 2.238281 4.382813 2.542969 9.503907.839844 14.121094-1.699219 4.621094-5.253907 8.320313-9.796875 10.207031l-8.253906 3.449219c-8.4375 3.488281-18.136719-.027344-22.378907-8.109375-41.808593-77.917969-136.929687-109.992188-217.382812-73.304688-80.457031 36.691407-118.605469 129.539063-87.191407 212.195313 31.417969 82.65625 121.605469 126.726563 206.121094 100.714844 8.722656-2.8125 18.148438 1.5 21.722656 9.941406l3.453126 8.253906c1.921874 4.519531 1.867187 9.640625-.15625 14.121094-2.027344 4.476563-5.832032 7.902344-10.5 9.445313-87.242188 27.601562-182.34375-3.910157-235.84375-78.140626-53.503907-74.230468-53.320313-174.417968.453124-248.453124 53.773438-74.035157 148.992188-105.195313 236.132813-77.277344zm0 0" fill="#f29c1f"/><path d="m379.394531 264.839844c-1.070312 15.675781-5.179687 30.996094-12.09375 45.109375-2.519531 5.304687-5.441406 10.410156-8.738281 15.269531 0 .050781-.039062.089844-.089844.089844-8.804687 13.003906-20.011718 24.207031-33.015625 33.015625-17.992187 12.117187-38.832031 19.328125-60.46875 20.921875-5.875.484375-11.777343.484375-17.652343 0-15.679688-1.074219-31-5.179688-45.109376-12.09375-5.308593-2.519532-10.414062-5.441406-15.273437-8.742188-.046875 0-.089844-.039062-.089844-.085937-13-8.808594-24.207031-20.011719-33.011719-33.015625-12.121093-17.992188-19.332031-38.835938-20.921874-60.46875-.488282-5.875-.488282-11.78125 0-17.65625 1.070312-15.675782 5.175781-30.996094 12.09375-45.109375 2.519531-5.304688 5.441406-10.410157 8.738281-15.269531 0-.050782.039062-.089844.089843-.089844 8.804688-13.003906 20.011719-24.207032 33.011719-33.015625 17.992188-12.117188 38.835938-19.328125 60.472657-20.921875 5.875-.484375 11.777343-.484375 17.652343 0 15.679688 1.070312 31 5.179687 45.109375 12.09375 5.308594 2.519531 10.414063 5.441406 15.273438 8.738281.046875 0 .085937.042969.085937.089844 13.003907 8.808593 24.210938 20.011719 33.015625 33.015625 12.121094 17.992187 19.332032 38.835937 20.921875 60.46875.484375 5.875.484375 11.78125 0 17.65625zm0 0" fill="#90bae1"/><path d="m108.414062 176.5625c43.421876-80.847656 143.773438-111.765625 225.164063-69.367188 4.359375 2.378907 7.5 6.492188 8.652344 11.320313 1.152343 4.828125.203125 9.917969-2.613281 14.007813l-4.996094 7.394531c-5.15625 7.429687-15.046875 9.835937-23.039063 5.605469-57.324219-28.738282-127.101562-8.863282-160.679687 45.765624-33.574219 54.628907-19.792969 125.863282 31.734375 164.027344 51.527343 38.164063 123.6875 30.578125 166.152343-17.464844 5.839844-6.898437 15.914063-8.351562 23.464844-3.378906l7.398438 4.996094c4.132812 2.742188 6.910156 7.109375 7.644531 12.015625.730469 4.90625-.652344 9.894531-3.804687 13.722656-55.730469 65.148438-151.613282 77.785157-222.316407 29.296875-70.703125-48.484375-93.457031-142.484375-52.761719-217.941406zm0 0" fill="#f0c419"/><g fill="#5e5f62"><path d="m264.988281 132.777344v17.304687c0 4.875-3.953125 8.824219-8.828125 8.824219s-8.824218-3.949219-8.824218-8.824219v-17.304687c5.875-.484375 11.777343-.484375 17.652343 0zm0 0"/><path d="m264.988281 361.941406v17.304688c-5.875.484375-11.777343.484375-17.652343 0v-17.304688c0-4.875 3.949218-8.828125 8.824218-8.828125s8.828125 3.953125 8.828125 8.828125zm0 0"/><path d="m159.058594 256.011719c0 4.875-3.953125 8.828125-8.828125 8.828125h-17.300781c-.488282-5.875-.488282-11.78125 0-17.65625h17.300781c4.875 0 8.828125 3.953125 8.828125 8.828125zm0 0"/><path d="m379.394531 264.839844h-17.300781c-4.875 0-8.828125-3.953125-8.828125-8.828125s3.953125-8.828125 8.828125-8.828125h17.300781c.484375 5.875.484375 11.78125 0 17.65625zm0 0"/><path d="m207.609375 171.882812c-2.019531 1.203126-4.4375 1.546876-6.710937.949219-2.277344-.597656-4.214844-2.085937-5.382813-4.125l-8.652344-15.007812c4.898438-3.3125 10.035157-6.261719 15.363281-8.828125l8.648438 15.007812c2.398438 4.21875.9375 9.582032-3.265625 12.003906zm0 0"/><path d="m325.457031 358.324219c-4.894531 3.3125-10.03125 6.261719-15.359375 8.828125l-8.648437-15.007813c-1.578125-2.746093-1.570313-6.121093.015625-8.859375 1.585937-2.738281 4.515625-4.417968 7.679687-4.414062 3.164063.007812 6.085938 1.703125 7.664063 4.445312zm0 0"/><path d="m168.855469 316.65625-15.003907 8.652344c-3.316406-4.898438-6.265624-10.03125-8.828124-15.359375l15.007812-8.652344c2.742188-1.578125 6.117188-1.570313 8.855469.015625 2.738281 1.589844 4.421875 4.515625 4.414062 7.683594-.007812 3.164062-1.699219 6.082031-4.445312 7.660156zm0 0"/><path d="m367.300781 202.074219-15.007812 8.652343c-4.21875 2.394532-9.582031.9375-12.003907-3.265624-1.1875-2.027344-1.519531-4.4375-.921874-6.707032.597656-2.269531 2.070312-4.207031 4.097656-5.386718l15.007812-8.652344c3.3125 4.898437 6.265625 10.03125 8.828125 15.359375zm0 0"/><path d="m172.035156 207.460938c-2.425781 4.203124-7.785156 5.660156-12.003906 3.265624l-15.007812-8.652343c2.519531-5.304688 5.441406-10.410157 8.738281-15.269531 0-.050782.039062-.089844.089843-.089844l15.003907 8.652344c2.03125 1.179687 3.503906 3.117187 4.101562 5.386718.59375 2.269532.265625 4.679688-.921875 6.707032zm0 0"/><path d="m367.300781 309.949219c-2.519531 5.304687-5.441406 10.410156-8.738281 15.269531 0 .050781-.039062.089844-.089844.089844l-15.007812-8.652344c-2.742188-1.578125-4.4375-4.496094-4.441406-7.660156-.007813-3.167969 1.675781-6.09375 4.414062-7.683594 2.734375-1.585938 6.113281-1.59375 8.855469-.015625zm0 0"/><path d="m210.875 352.144531-8.648438 15.007813c-5.308593-2.519532-10.414062-5.441406-15.273437-8.742188-.046875 0-.089844-.039062-.089844-.085937l8.652344-15.007813c1.578125-2.742187 4.5-4.4375 7.664063-4.445312 3.164062-.003906 6.089843 1.675781 7.679687 4.414062 1.585937 2.738282 1.59375 6.113282.015625 8.859375zm0 0"/><path d="m325.457031 153.699219-8.648437 15.007812c-1.167969 2.039063-3.109375 3.527344-5.382813 4.125-2.273437.597657-4.691406.253907-6.710937-.949219-4.203125-2.421874-5.664063-7.785156-3.265625-12.003906l8.648437-15.007812c5.308594 2.519531 10.414063 5.441406 15.273438 8.738281.046875 0 .085937.042969.085937.089844zm0 0"/><path d="m317.953125 264.839844h-61.792969c-4.875 0-8.824218-3.953125-8.824218-8.828125v-70.621094c0-4.875 3.949218-8.828125 8.824218-8.828125s8.828125 3.953125 8.828125 8.828125v61.792969h52.964844c4.878906 0 8.828125 3.953125 8.828125 8.828125s-3.949219 8.828125-8.828125 8.828125zm0 0"/></g></svg>