<?xml version="1.0" encoding="iso-8859-1"?>
<!-- Generator: Adobe Illustrator 19.0.0, SVG Export Plug-In . SVG Version: 6.00 Build 0)  -->
<svg version="1.1" id="Capa_1" xmlns="http://www.w3.org/2000/svg" xmlns:xlink="http://www.w3.org/1999/xlink" x="0px" y="0px"
	 viewBox="0 0 330.948 330.948" style="enable-background:new 0 0 330.948 330.948;" xml:space="preserve">
<g transform="translate(1 1)">
	<polygon style="fill:#FFE100;" points="164.474,10.012 213.913,111.703 324.453,128.01 244.463,207.167 263.346,318.936 
		164.474,266.166 65.602,318.936 84.485,207.167 4.495,128.01 115.035,111.703 	"/>
	<polygon style="fill:#FFA800;" points="324.453,128.697 305.2,125.857 227.913,202.338 246.185,310.461 263.346,319.624 
		244.463,207.854 	"/>
	<polygon style="fill:#FFFFFF;" points="4.495,128.011 23.748,125.17 101.034,201.65 82.763,309.774 65.602,318.937 84.485,207.167 
			"/>
	<path d="M263.345,324.431c-0.886,0-1.775-0.214-2.586-0.647l-96.284-51.39l-96.284,51.39c-1.849,0.986-4.097,0.835-5.797-0.389
		c-1.701-1.224-2.557-3.309-2.208-5.375l18.407-108.956L0.63,131.916c-1.48-1.465-2.005-3.64-1.356-5.618
		c0.648-1.978,2.36-3.42,4.419-3.724l107.669-15.883L159.532,7.61c0.919-1.892,2.839-3.093,4.942-3.093
		c2.104,0,4.022,1.2,4.942,3.093l48.17,99.081l107.669,15.883c2.06,0.304,3.771,1.746,4.42,3.724
		c0.648,1.978,0.123,4.154-1.357,5.618l-77.961,77.148l18.407,108.956c0.349,2.066-0.507,4.151-2.208,5.375
		C265.603,324.082,264.476,324.431,263.345,324.431z M16.179,131.841l72.171,71.419c1.272,1.259,1.851,3.057,1.553,4.821
		L72.884,308.821l89.003-47.504c1.617-0.862,3.558-0.862,5.174,0l89.003,47.504l-17.019-100.739
		c-0.298-1.764,0.281-3.563,1.553-4.821l72.171-71.419l-99.658-14.701c-1.797-0.265-3.346-1.401-4.14-3.034L164.474,22.58
		l-44.497,91.526c-0.794,1.633-2.343,2.769-4.14,3.034L16.179,131.841z"/>
</g>
<g>
</g>
<g>
</g>
<g>
</g>
<g>
</g>
<g>
</g>
<g>
</g>
<g>
</g>
<g>
</g>
<g>
</g>
<g>
</g>
<g>
</g>
<g>
</g>
<g>
</g>
<g>
</g>
<g>
</g>
</svg>
