<svg viewBox="0 0 28 30" fill="none" xmlns="http://www.w3.org/2000/svg">
    <g clip-path="url(#clip0)" clip-rule="evenodd" fill="#999">
        <path d="M3.23 28.44c.01.35-.28.6-.62.6h-.94v-1.19h.94c.33 0 .6.23.62.6zm22.97-2.19v3.55c0 .06-.06.1-.11.1h-.74c-.06 0-.11-.04-.11-.1v-3.55h-1.17c-.06 0-.1-.06-.1-.12v-.6c0-.06.04-.12.1-.12h3.31c.06 0 .1.06.1.12v.6c0 .06-.04.12-.1.12H26.2zm-18.58 3.5v-.59c0-.04-.02-.11-.11-.11H5.78a.32.32 0 01-.32-.35v-.85h1.85c.07 0 .11-.07.11-.1v-.6a.11.11 0 00-.11-.12H5.46v-.48c0-.2.17-.31.32-.31H7.5c.09 0 .11-.06.11-.12v-.6a.11.11 0 00-.11-.1l-1.8-.02c-.68 0-1.21.56-1.21 1.2v2.12c0 .65.54 1.18 1.18 1.18h1.84c.06 0 .12-.04.12-.12-.02 0-.02-.01-.02-.03zm7.36-2.23v-.03c.14-.09.25-.19.35-.33.08-.13.16-.29.2-.48l.29-1.14c.01-.05-.03-.13-.1-.13h-.7c-.02 0-.04 0-.07.02-.03.01-.04.03-.06.07l-.28 1.08c-.03.13-.1.23-.13.32a.7.7 0 01-.2.17c-.06.05-.14.06-.2.07-.07.02-.14.02-.2.02h-.5v-1.63c0-.07-.06-.1-.1-.1h-.75c-.06 0-.12.04-.12.1v4.28c0 .06.06.1.12.1h.72c.06 0 .12-.04.12-.1v-1.9h.51c.15 0 .28.01.38.04.1.03.19.09.26.16a.8.8 0 01.17.33l.4 1.39c0 .05.05.07.1.07h.73c.08 0 .11-.09.11-.13l-.39-1.49c-.02-.1-.05-.18-.08-.26l-.12-.21a.98.98 0 00-.17-.18c-.09-.04-.17-.08-.29-.11zm2.7.65l.24-.81.25-.9h.04l.23.9.25.8h-1.01zm1.24.8l.24.83c.02.07.06.1.12.1h.8c.08 0 .14-.06.1-.15l-1.32-4c-.06-.18-.16-.34-.37-.34h-.58a.3.3 0 00-.29.13.75.75 0 00-.1.22l-1.33 4c-.03.08.05.14.1.14h.78c.03 0 .07 0 .12-.07l.01-.06.25-.8h1.47zm3.98-2.13c0 .32-.25.6-.6.6h-.86v-1.19h.84a.6.6 0 01.62.6zm-1.46 2.93v-1.5h1.07a1.43 1.43 0 001.28-2.02 1.42 1.42 0 00-1.37-.84h-1.61c-.18 0-.32.12-.32.3v4.07c0 .06.04.12.12.12h.75c.04 0 .07-.03.1-.06-.02-.01-.02-.04-.02-.07zm-20.42.13h1.67c.84.03 1.52-.55 1.53-1.41l-.01-.26c-.15-.71-.71-1.19-1.42-1.19H1.67v-.79H3.6c.07 0 .12-.06.12-.12v-.56c0-.07-.03-.14-.12-.14H1.05c-.26 0-.35.19-.35.32v3.85c0 .15.13.3.32.3zm7.67-4.05l-.06.96-.05.87c-.03.4-.08 1.37-.6 1.37h-.02c-.05 0-.1.04-.1.1v.62c0 .07.04.11.11.11h.04c.4 0 .74-.04 1.04-.49.1-.14.18-.3.23-.47a5.36 5.36 0 00.23-1.34c.02-.28.05-.57.06-.88l.03-.45h1.24v3.53c0 .06.06.12.12.12h.73c.07 0 .12-.06.12-.12v-4.05a.32.32 0 00-.33-.32H9.02a.3.3 0 00-.3.3c-.03.05-.03.1-.03.14zM16.42 14.15c-.14 0-.24.11-.24.26v2.25l1.51 1.92-3.39-3.4a.25.25 0 00-.36 0l-1.61 1.62-.3 2.41v-4.8c0-.15-.12-.26-.25-.26H9.34L7.55 15.6l3.4-3.4c.1-.1.1-.25 0-.35l-1.7-1.7-2.3-.2h4.79c.14 0 .24-.12.24-.27V7.4l-1.47-1.87 3.39 3.4c.1.1.26.1.36 0l1.67-1.68.25-2.35v4.79c0 .14.11.26.26.26h2.38l1.81-1.46-3.38 3.39c-.1.1-.1.26 0 .36l1.65 1.66 2.34.24h-4.82v.02zm9.65-.56l-5.09-5.1 2.64 1.46c.14 0 .25-.11.25-.26V4.9a.24.24 0 00-.25-.24h-7.21l2.93-.82c.1-.1.1-.26 0-.36L15.96.08a.25.25 0 00-.36 0L12 3.67l-1.55 1.56.02-.02L12 2.48a.24.24 0 00-.25-.24h-4.8a.24.24 0 00-.25.24V9.7l-.85-2.93a.25.25 0 00-.36 0l-3.39 3.4c-.1.1-.1.25 0 .35l5.1 5.1-2.65-1.46c-.14 0-.24.11-.24.26v4.79c0 .14.11.26.24.26h7.21l-2.92.82c-.1.1-.1.26 0 .36l3.39 3.39c.1.1.26.1.36 0l3.59-3.6 1.48-1.48-1.48 2.66c0 .14.11.26.24.26h4.8c.14 0 .25-.12.25-.26v-7.22l.85 2.95c.1.1.26.1.36 0l3.4-3.4c.1-.1.1-.25 0-.35z"/>
    </g>
    <defs>
        <clipPath id="clip0">
            <path fill="#fff" d="M.7 0h26.83v30H.7z"/>
        </clipPath>
    </defs>
</svg>
