<svg viewBox="0 0 100 30" fill="none" xmlns="http://www.w3.org/2000/svg">
    <g clip-path="url(#clip0)" clip-rule="evenodd">
        <path d="M93.16 12.34c0-.62.47-1.12 1.06-1.12.6 0 1.06.5 1.06 1.12 0 .63-.47 1.13-1.06 1.13-.56 0-1.06-.5-1.06-1.13zm1.06.85c.44 0 .81-.38.81-.85a.83.83 0 00-.81-.84.83.83 0 00-.81.84c0 .47.37.85.8.85zm-.13-.35h-.22v-.96h.41c.1 0 .16 0 .25.06.06.06.13.15.13.25s-.07.22-.16.25l.16.44h-.28l-.16-.38h-.16v.34h.03zm0-.56h.13c.03 0 .1 0 .12-.03.03-.03.07-.06.07-.13 0-.03-.03-.09-.07-.09-.03-.03-.09-.03-.12-.03h-.13v.28zM78.03 4.94l-.28 1.87a3.15 3.15 0 00-1.6-.47c-1.3 0-2.24 1.35-2.24 3.25 0 1.32.62 2.13 1.65 2.13.44 0 .9-.13 1.5-.44l-.31 2c-.66.19-1.06.25-1.56.25-1.9 0-3.1-1.44-3.1-3.75 0-3.12 1.66-5.28 4-5.28.32 0 .57.03.78.1l.72.18c.22.1.28.1.44.16zM72.16 6.25c-.07 0-.13-.03-.2-.03-.58 0-.9.31-1.46 1.16l.16-1.07h-1.6l-1.1 7.07h1.79c.63-4.32.81-5.07 1.66-5.07h.12a8 8 0 01.66-2.06h-.03zM61.53 13.28c-.47.16-.87.22-1.28.22-.9 0-1.4-.56-1.4-1.56 0-.19 0-.4.06-.63l.12-.69.1-.56.78-4.81h1.75l-.2 1.06h.91l-.24 1.72h-.91l-.47 2.94c-.03.12-.03.22-.03.28 0 .38.19.53.6.53.21 0 .34-.03.46-.06l-.25 1.56zM54.56 8.53c0 .9.4 1.5 1.35 1.97.72.34.8.47.8.78 0 .44-.3.66-1 .66a4.9 4.9 0 01-1.59-.28l-.24 1.62.09.03.31.06c.1.04.25.04.47.07.44.03.75.06.97.06 1.84 0 2.72-.75 2.72-2.38 0-.96-.35-1.53-1.25-1.96-.75-.35-.81-.44-.81-.75 0-.38.28-.6.87-.6.34 0 .81.03 1.28.1l.22-1.63c-.47-.06-1.16-.12-1.56-.12-1.94 0-2.63 1.09-2.63 2.37zM92.16 13.38h-1.7l.1-.7c-.5.57-1 .79-1.62.79-1.28 0-2.16-1.16-2.16-2.94 0-2.34 1.31-4.34 2.88-4.34.68 0 1.22.31 1.68.97l.38-2.5h1.75l-1.31 8.71zm-2.63-1.66c.81 0 1.4-.97 1.4-2.38 0-.9-.34-1.37-.93-1.37-.81 0-1.38 1-1.38 2.37 0 .91.32 1.38.91 1.38zM67.16 13.22c-.6.19-1.2.28-1.82.28-1.97 0-3-1.1-3-3.16 0-2.43 1.32-4.21 3.1-4.21 1.47 0 2.37 1 2.37 2.56 0 .53-.06 1.03-.22 1.75h-3.53c0 .1-.03.15-.03.22 0 .8.53 1.25 1.56 1.25.63 0 1.2-.13 1.85-.44l-.28 1.75zm-1-4.19V8.7c0-.6-.32-.9-.85-.9-.56 0-.97.43-1.12 1.27l1.97-.03zM47.44 13.38h-1.78l1.03-6.7-2.25 6.7h-1.22l-.16-6.66L42 13.38h-1.66l1.38-8.7h2.56l.06 5.38 1.72-5.37h2.75l-1.37 8.68zM52 10.22c-.19-.03-.28-.03-.4-.03-1 0-1.5.37-1.5 1.1 0 .43.24.71.62.71.75 0 1.25-.72 1.28-1.78zm1.31 3.15h-1.47l.03-.74c-.43.59-1.03.84-1.84.84-.97 0-1.62-.78-1.62-1.94 0-1.72 1.15-2.72 3.12-2.72.19 0 .47.03.72.06.06-.24.06-.34.06-.46 0-.47-.31-.66-1.12-.66-.5 0-1.06.06-1.47.19l-.25.06-.16.03.25-1.6a6.49 6.49 0 012.13-.37c1.53 0 2.34.72 2.34 2.07 0 .34-.03.62-.16 1.4l-.37 2.5-.06.44-.1.47-.03.25v.19zM81.1 10.22c-.2-.03-.29-.03-.41-.03-1 0-1.53.37-1.53 1.1 0 .43.25.71.62.71.75 0 1.28-.72 1.31-1.78zm1.28 3.15H80.9l.03-.74c-.44.59-1.03.84-1.85.84-.97 0-1.62-.78-1.62-1.94 0-1.72 1.16-2.72 3.12-2.72.2 0 .47.03.72.06.06-.24.06-.34.06-.46 0-.47-.3-.66-1.12-.66-.5 0-1.06.06-1.47.19l-.25.06-.16.03.25-1.6a6.49 6.49 0 012.13-.37c1.53 0 2.34.72 2.34 2.07 0 .34-.03.62-.15 1.4l-.38 2.5-.06.44-.06.37-.03.25-.03.29zM87.31 6.25c-.06 0-.12-.03-.19-.03-.59 0-.9.31-1.46 1.16l.15-1.07h-1.6l-1.08 7.07h1.78c.62-4.32.8-5.07 1.65-5.07h.13c.15-.84.37-1.47.69-2.06h-.07z" fill="#646464"/>
        <path d="M79.88 20.25c0 1.6-.5 2.56-1.29 2.56-.56.03-.9-.62-.9-1.56 0-1.13.5-2.4 1.31-2.4.66-.04.88.65.88 1.4zm1.75.03c0-1.78-.88-3.16-2.54-3.16-1.9 0-3.12 1.7-3.12 4.16 0 1.78.72 3.22 2.53 3.22 1.81 0 3.13-1.28 3.13-4.22zM76.53 15.84l-.28 1.88a2.84 2.84 0 00-1.47-.47c-1.25 0-2.1 1.34-2.1 3.25 0 1.31.6 2.13 1.54 2.13.4 0 .87-.13 1.4-.44l-.28 1.97c-.62.18-1 .25-1.47.25-1.78 0-2.9-1.44-2.9-3.75 0-3.13 1.53-5.29 3.72-5.29.28 0 .53.04.75.1l.69.19.4.18zM65.56 17.16c-.06 0-.1-.04-.15-.04-.53 0-.85.32-1.35 1.16l.16-1.06h-1.5l-1 7.06h1.66c.56-4.34.71-5.1 1.5-5.1H65c.16-.84.34-1.46.63-2.05l-.07.03zM87.19 24.19h-1.56l.09-.69c-.47.53-.94.78-1.53.78-1.22 0-2-1.16-2-2.94 0-2.34 1.25-4.34 2.69-4.34.65 0 1.12.31 1.59.97l.37-2.5h1.63l-1.28 8.72zm-2.47-1.66c.78 0 1.31-.97 1.31-2.37 0-.91-.31-1.38-.87-1.38-.75 0-1.28.97-1.28 2.38 0 .9.3 1.37.84 1.37zM50.06 24.16a5.3 5.3 0 01-1.69.28c-1.84 0-2.8-1.1-2.8-3.16 0-2.44 1.21-4.22 2.9-4.22 1.37 0 2.22 1 2.22 2.57 0 .53-.06 1.03-.19 1.75h-3.31v.21c0 .82.5 1.25 1.47 1.25.59 0 1.12-.12 1.72-.43l-.32 1.75zm-.94-4.2v-.34c0-.56-.28-.9-.78-.9-.53 0-.9.47-1.06 1.28l1.84-.03zM69.72 24.16a5.3 5.3 0 01-1.69.28c-1.84 0-2.81-1.1-2.81-3.16 0-2.44 1.22-4.22 2.9-4.22 1.38 0 2.25 1 2.25 2.57 0 .53-.06 1.03-.21 1.75h-3.32c0 .09-.03.15-.03.21 0 .82.5 1.25 1.44 1.25.6 0 1.13-.12 1.72-.43l-.25 1.75zm-.9-4.2l.02-.34c0-.56-.28-.9-.78-.9-.53 0-.9.47-1.06 1.28l1.81-.03zM92.81 24.16a5.3 5.3 0 01-1.69.28c-1.84 0-2.8-1.1-2.8-3.16 0-2.44 1.21-4.22 2.9-4.22 1.37 0 2.22 1 2.22 2.57 0 .53-.06 1.03-.19 1.75h-3.28v.21c0 .82.5 1.25 1.44 1.25.59 0 1.12-.12 1.72-.43l-.32 1.75zm-.9-4.2v-.34c0-.56-.28-.9-.78-.9-.54 0-.91.47-1.07 1.28l1.85-.03zM45.16 17.47c-.32-.22-.75-.4-1.38-.4-.66 0-1.22.12-1.22.84 0 1.25 2.44.78 2.44 3.46 0 2.44-1.63 3.1-3.06 3.1-.66 0-1.4-.22-1.94-.47l.4-1.81c.35.31 1 .5 1.54.5.53 0 1.34-.16 1.34-1.07 0-1.43-2.44-.9-2.44-3.4 0-2.28 1.44-2.97 2.82-2.97.78 0 1.5.13 1.93.4l-.43 1.82zM54.9 24.16c-.34.15-.8.28-1.46.28-1.44 0-2.35-1.44-2.35-3.22 0-2.31 1.32-4.13 3.22-4.13.4 0 1.06.2 1.56.47l-.37 1.69a2.3 2.3 0 00-1.13-.38c-.87 0-1.53.82-1.53 2.25 0 .85.47 1.54 1.2 1.54.43 0 .71-.1 1.09-.32l-.22 1.82zM61.1 22.4c-.1.6-.16 1.2-.23 1.85h-1.59l.13-1.16h-.03c-.5.79-1 1.32-1.91 1.32-1 0-1.53-1.07-1.53-2.44 0-.47.03-.75.12-1.47l.44-3.28h1.78l-.47 3.28c-.06.34-.12.69-.12 1.06 0 .4.19.85.65.82.72 0 1.16-.88 1.28-1.94l.5-3.22h1.76l-.79 5.19zM94.47 24.16h-.28v-1.2h-.38v-.24h1.03v.25h-.37v1.19zM96.25 24.16H96v-1.22l-.25 1.18h-.25l-.22-1.18v1.18H95V22.7h.38l.21 1.12.22-1.12h.38v1.47h.06z" fill="#CDCDCD"/>
    </g>
    <g clip-path="url(#clip1)">
        <path d="M5.86 27.44v-1.67c0-.63-.4-1.04-1.05-1.04-.33 0-.7.11-.94.47a.96.96 0 00-.89-.47.88.88 0 00-.76.39v-.33h-.58v2.65h.58v-1.46c0-.47.25-.7.63-.7.37 0 .58.26.58.7v1.46H4v-1.46c0-.47.27-.7.62-.7.4 0 .58.26.58.7v1.46h.65zm8.6-2.66h-.95v-.8h-.58v.8h-.52v.53h.52v1.22c0 .6.26.97.91.97.25 0 .53-.09.72-.19l-.16-.5a.9.9 0 01-.5.14c-.29 0-.4-.17-.4-.45v-1.18h.95v-.54zm4.92-.05a.78.78 0 00-.69.39v-.33h-.58v2.65h.58v-1.5c0-.44.19-.7.55-.7.12 0 .26.03.37.06l.16-.56-.39-.01zm-7.44.28a1.95 1.95 0 00-1.08-.28c-.67 0-1.11.33-1.11.86 0 .44.33.69.9.76l.28.03c.3.05.47.14.47.28 0 .18-.23.32-.6.32-.38 0-.7-.14-.89-.27l-.28.44c.3.22.72.32 1.14.32.77 0 1.22-.36 1.22-.85 0-.47-.37-.72-.9-.8l-.28-.03c-.26-.03-.44-.1-.44-.25 0-.2.18-.3.5-.3.33 0 .67.13.83.22l.24-.45zm15.43-.28a.78.78 0 00-.7.39v-.33h-.57v2.65h.57v-1.5c0-.44.2-.7.56-.7.11 0 .25.03.36.06l.17-.56-.4-.01zm-7.4 1.38c0 .81.55 1.39 1.4 1.39.4 0 .67-.09.95-.3l-.28-.47c-.23.17-.44.25-.7.25-.46 0-.8-.32-.8-.85 0-.5.33-.83.8-.86.26 0 .47.09.7.25l.28-.46c-.28-.23-.56-.3-.95-.3-.85-.03-1.4.55-1.4 1.35zm5.36 0V24.8h-.58v.33a.98.98 0 00-.83-.4c-.75 0-1.33.59-1.33 1.4 0 .8.58 1.38 1.33 1.38.39 0 .66-.14.83-.39v.33h.58V26.1zm-2.13 0c0-.46.3-.85.8-.85.47 0 .81.36.81.85 0 .47-.33.86-.8.86-.5-.02-.81-.39-.81-.86zm-6.94-1.38c-.77 0-1.32.55-1.32 1.38 0 .84.55 1.39 1.36 1.39.39 0 .77-.11 1.08-.37l-.28-.41c-.22.16-.5.28-.77.28-.36 0-.71-.17-.8-.63h1.96v-.23c.02-.86-.49-1.41-1.23-1.41zm0 .49c.36 0 .6.23.67.63h-1.39c.05-.35.3-.63.72-.63zm14.4.9v-2.39h-.57v1.39a.98.98 0 00-.83-.4c-.75 0-1.33.59-1.33 1.4 0 .8.58 1.38 1.33 1.38.39 0 .66-.14.83-.39v.33h.58V26.1zm-2.13 0c0-.47.3-.86.8-.86.47 0 .8.36.8.85 0 .47-.32.86-.8.86a.82.82 0 01-.8-.86zm-19.41 0v-1.33h-.58v.33a.98.98 0 00-.83-.4c-.75 0-1.32.59-1.32 1.4 0 .8.57 1.38 1.32 1.38.39 0 .67-.14.83-.39v.33h.58V26.1zm-2.16 0c0-.47.3-.86.81-.86.47 0 .8.36.8.85 0 .47-.32.86-.8.86-.5-.02-.8-.39-.8-.86z" fill="#999"/>
        <path d="M20.47 4.63h-8.72v15.65h8.72V4.63z" fill="#8F9194"/>
        <path d="M12.3 12.45a10 10 0 013.8-7.82A9.93 9.93 0 000 12.45a9.94 9.94 0 0016.08 7.82 9.9 9.9 0 01-3.78-7.82z" fill="#636466"/>
        <path d="M32.2 12.45a9.94 9.94 0 01-16.08 7.82 10 10 0 000-15.64 9.92 9.92 0 0116.08 7.82z" fill="#C0C2C4"/>
    </g>
    <defs>
        <clipPath id="clip0">
            <path fill="#fff" d="M40 4.5h56.25v20H40z"/>
        </clipPath>
        <clipPath id="clip1">
            <path fill="#fff" d="M0 2.5h32.2v25H0z"/>
        </clipPath>
    </defs>
</svg>
