<?xml version="1.0" encoding="iso-8859-1"?>
<!-- Generator: Adobe Illustrator 18.0.0, SVG Export Plug-In . SVG Version: 6.00 Build 0)  -->
<!DOCTYPE svg PUBLIC "-//W3C//DTD SVG 1.1//EN" "http://www.w3.org/Graphics/SVG/1.1/DTD/svg11.dtd">
<svg xmlns="http://www.w3.org/2000/svg" xmlns:xlink="http://www.w3.org/1999/xlink" version="1.1" id="Capa_1" x="0px" y="0px" viewBox="0 0 458.867 458.867" style="enable-background:new 0 0 458.867 458.867;" xml:space="preserve" width="512px" height="512px">
<path d="M404.75,0.027H55.731C25.664,0.027,0,28.27,0,58.245V407.49c0,29.965,25.664,51.351,55.731,51.351H404.75  c30.066,0,54.117-21.386,54.117-51.351V58.245C458.867,28.27,434.816,0.027,404.75,0.027z M393.955,65.57  c8.699,0,15.752,7.053,15.752,15.752v50.436c0,8.699-7.053,15.752-15.752,15.752h-50.443c-8.699,0-15.752-7.053-15.752-15.752  V81.322c0-8.699,7.053-15.752,15.752-15.752H393.955z M230.771,145.569c48.631,0,88.05,39.334,88.05,87.832  c0,48.506-39.419,87.839-88.05,87.839c-48.622,0-88.05-39.333-88.05-87.839C142.721,184.903,182.148,145.569,230.771,145.569z   M409.707,395.776c0,7.046-7.489,13.912-14.559,13.912H66.407c-7.067,0-17.246-6.866-17.246-13.912V196.663h47.282  c-3.219,16.391-4.956,24.035-4.956,36.738c0,76.617,62.479,138.934,139.283,138.934c76.811,0,139.292-62.332,139.292-138.949  c0-12.688-1.738-20.332-4.941-36.723h44.586V395.776z" fill="#a09fa1"/>
<g>
</g>
<g>
</g>
<g>
</g>
<g>
</g>
<g>
</g>
<g>
</g>
<g>
</g>
<g>
</g>
<g>
</g>
<g>
</g>
<g>
</g>
<g>
</g>
<g>
</g>
<g>
</g>
<g>
</g>
</svg>
